<?xml version="1.0" encoding="UTF-8" standalone="no"?>
<!-- Created with Inkscape (http://www.inkscape.org/) -->

<svg
   width="4.9392395mm"
   height="14.183712mm"
   viewBox="0 0 4.9392394 14.183712"
   version="1.1"
   id="svg5"
   inkscape:version="1.2.2 (b0a8486541, 2022-12-01)"
   sodipodi:docname="full.svg"
   xml:space="preserve"
   inkscape:export-filename="logos\full.svg"
   inkscape:export-xdpi="300"
   inkscape:export-ydpi="300"
   xmlns:inkscape="http://www.inkscape.org/namespaces/inkscape"
   xmlns:sodipodi="http://sodipodi.sourceforge.net/DTD/sodipodi-0.dtd"
   xmlns="http://www.w3.org/2000/svg"
   xmlns:svg="http://www.w3.org/2000/svg"><sodipodi:namedview
     id="namedview7"
     pagecolor="#ffffff"
     bordercolor="#000000"
     borderopacity="0.25"
     inkscape:showpageshadow="2"
     inkscape:pageopacity="0.0"
     inkscape:pagecheckerboard="0"
     inkscape:deskcolor="#d1d1d1"
     inkscape:document-units="mm"
     showgrid="false"
     inkscape:zoom="1.7368028"
     inkscape:cx="283.27914"
     inkscape:cy="199.7924"
     inkscape:window-width="2560"
     inkscape:window-height="1411"
     inkscape:window-x="0"
     inkscape:window-y="0"
     inkscape:window-maximized="1"
     inkscape:current-layer="layer1"><inkscape:grid
       type="xygrid"
       id="grid1834"
       originx="0"
       originy="0" /></sodipodi:namedview><defs
     id="defs2" /><g
     inkscape:label="Calque 1"
     inkscape:groupmode="layer"
     id="layer1"
     transform="translate(-177.1504,-15.720749)"><g
       id="g14762"
       transform="matrix(-1.1318941,0.02731628,0.02872471,1.0763949,316.84495,-9.4049208)"
       style="stroke:#e0e0e0;stroke-width:0.5;stroke-dasharray:none;stroke-opacity:1"><path
         style="fill:none;fill-opacity:1;stroke:#e0e0e0;stroke-width:0.5;stroke-linecap:round;stroke-dasharray:none;stroke-dashoffset:0;stroke-opacity:1"
         d="m 118.58477,17.516777 c -1.69123,0.638124 -1.98171,3.452521 -0.45647,4.422625"
         id="path14756"
         sodipodi:nodetypes="cc" /><path
         style="fill:none;fill-opacity:1;stroke:#e0e0e0;stroke-width:0.5;stroke-linecap:round;stroke-dasharray:none;stroke-dashoffset:0;stroke-opacity:1"
         d="m 117.39936,16.42864 c -2.39805,1.58102 -2.68853,4.395417 -0.88573,6.613188"
         id="path14758"
         sodipodi:nodetypes="cc" /><path
         style="fill:none;fill-opacity:1;stroke:#e0e0e0;stroke-width:0.5;stroke-linecap:round;stroke-dasharray:none;stroke-dashoffset:0;stroke-opacity:1"
         d="m 119.46756,18.403885 c -1.08813,0.70037 -1.21263,1.90654 -0.29048,2.814398"
         id="path14760"
         sodipodi:nodetypes="cc" /></g><path
       style="fill:#e0e0e0;fill-opacity:1;stroke:none;stroke-width:0.00460909;stroke-linecap:round;stroke-dasharray:none;stroke-dashoffset:0;stroke-opacity:1"
       d="m 179.16425,20.621033 c -0.33612,-0.01066 -0.72378,-0.06873 -1.21358,-0.181609 -0.12972,-0.0299 -0.14318,-0.03419 -0.14325,-0.04555 -3e-4,-0.03744 0.33118,-4.61552 0.33439,-4.61866 0.002,-0.002 0.0488,0.01111 0.10372,0.0293 0.77581,0.256517 1.23882,0.246737 1.99836,-0.0422 0.0641,-0.0244 0.11807,-0.04306 0.11982,-0.04147 0.003,0.0029 0.58266,4.606824 0.58002,4.608809 -8e-4,8.05e-4 -0.0588,0.01744 -0.12871,0.03743 -0.47751,0.136369 -0.83716,0.209268 -1.18822,0.240852 -0.0823,0.0073 -0.37833,0.01582 -0.46249,0.01309 z"
       id="path14764"
       inkscape:export-filename="small_lighthouse1\body.svg"
       inkscape:export-xdpi="300"
       inkscape:export-ydpi="300" /><path
       style="fill:#114f78;fill-opacity:1;stroke:none;stroke-width:0.0130366;stroke-linecap:round;stroke-dasharray:none;stroke-dashoffset:0;stroke-opacity:1"
       d="m 178.86638,24.260676 c -0.29068,-0.01875 -0.67053,-0.06655 -0.94078,-0.11839 -0.38289,-0.07344 -0.37409,-0.07062 -0.37071,-0.11856 0.14574,-2.064494 0.2518,-3.5306 0.25579,-3.534972 0.003,-0.0032 0.0961,0.01498 0.20705,0.04005 0.53782,0.121861 0.92631,0.166354 1.36407,0.156222 0.43681,-0.01012 0.75576,-0.0602 1.28078,-0.20116 0.15066,-0.04044 0.27717,-0.07062 0.28114,-0.06703 0.0146,0.01327 0.45101,3.54107 0.43936,3.552353 -0.0267,0.02592 -0.48737,0.136445 -0.80113,0.192264 -0.45947,0.08173 -1.26463,0.128286 -1.71563,0.09919 z"
       id="path14766" /><path
       style="fill:#e0e0e0;fill-opacity:1;stroke:none;stroke-width:0.0130366;stroke-linecap:round;stroke-dasharray:none;stroke-dashoffset:0;stroke-opacity:1"
       d="m 178.94714,27.287243 c -0.2958,-0.01567 -0.60674,-0.04976 -0.88472,-0.09649 -0.26556,-0.04473 -0.68435,-0.141647 -0.71038,-0.164529 -0.0123,-0.01066 0.18286,-2.861455 0.19698,-2.875537 0.003,-0.0032 0.0616,0.0076 0.12998,0.024 0.17944,0.04276 0.62305,0.112224 0.87024,0.136265 0.52707,0.05126 1.1367,0.04643 1.63609,-0.01296 0.26709,-0.03178 0.78682,-0.129632 1.0177,-0.191639 0.13921,-0.03737 0.20076,-0.04759 0.20538,-0.03406 0.0161,0.04728 0.35301,2.813292 0.34518,2.834243 -0.0161,0.04308 -0.51651,0.181033 -0.94795,0.261292 -0.51895,0.09655 -1.32035,0.148003 -1.85852,0.119359 z"
       id="path14768" /><path
       style="fill:#114f78;fill-opacity:1;stroke:none;stroke-width:0.0130366;stroke-linecap:round;stroke-dasharray:none;stroke-dashoffset:0;stroke-opacity:1"
       d="m 179.24696,29.904183 c -0.70448,-0.0041 -1.33984,-0.07257 -1.89316,-0.204081 -0.20435,-0.04857 -0.20827,-0.05037 -0.20182,-0.09428 0.005,-0.02452 0.0447,-0.59454 0.0921,-1.266494 0.0465,-0.672003 0.0865,-1.223454 0.088,-1.225498 0.001,-0.002 0.0542,0.0095 0.11737,0.02693 1.17985,0.314462 2.69971,0.306923 3.92596,-0.01934 0.13043,-0.03474 0.27189,-0.07588 0.31435,-0.09139 0.0425,-0.01552 0.0798,-0.02588 0.083,-0.02305 0.008,0.0071 0.32291,2.514788 0.31678,2.520918 -0.0113,0.01159 -0.31954,0.09872 -0.50455,0.142807 -0.46323,0.110378 -0.98187,0.18226 -1.4982,0.207636 -0.1895,0.0094 -0.37232,0.01942 -0.4063,0.0225 -0.0339,0.0029 -0.22898,0.0043 -0.43333,0.0033 z"
       id="path14770" /></g></svg>
