<?xml version="1.0" encoding="UTF-8" standalone="no"?>
<!-- Created with Inkscape (http://www.inkscape.org/) -->

<svg
   width="4.9391174mm"
   height="14.183701mm"
   viewBox="0 0 4.9391173 14.1837"
   version="1.1"
   id="svg5"
   inkscape:version="1.2.2 (b0a8486541, 2022-12-01)"
   sodipodi:docname="full.svg"
   xml:space="preserve"
   inkscape:export-filename="logos\full.svg"
   inkscape:export-xdpi="300"
   inkscape:export-ydpi="300"
   xmlns:inkscape="http://www.inkscape.org/namespaces/inkscape"
   xmlns:sodipodi="http://sodipodi.sourceforge.net/DTD/sodipodi-0.dtd"
   xmlns="http://www.w3.org/2000/svg"
   xmlns:svg="http://www.w3.org/2000/svg"><sodipodi:namedview
     id="namedview7"
     pagecolor="#ffffff"
     bordercolor="#000000"
     borderopacity="0.25"
     inkscape:showpageshadow="2"
     inkscape:pageopacity="0.0"
     inkscape:pagecheckerboard="0"
     inkscape:deskcolor="#d1d1d1"
     inkscape:document-units="mm"
     showgrid="false"
     inkscape:zoom="1.7368028"
     inkscape:cx="283.27914"
     inkscape:cy="199.7924"
     inkscape:window-width="2560"
     inkscape:window-height="1411"
     inkscape:window-x="0"
     inkscape:window-y="0"
     inkscape:window-maximized="1"
     inkscape:current-layer="layer1"><inkscape:grid
       type="xygrid"
       id="grid1834"
       originx="0"
       originy="0" /></sodipodi:namedview><defs
     id="defs2" /><g
     inkscape:label="Calque 1"
     inkscape:groupmode="layer"
     id="layer1"
     transform="translate(-202.90229,-51.602357)"><path
       style="fill:#e0e0e0;fill-opacity:1;stroke:none;stroke-width:0.00460909;stroke-linecap:round;stroke-dasharray:none;stroke-dashoffset:0;stroke-opacity:1"
       d="m 205.82757,56.502631 c 0.33612,-0.01071 0.72378,-0.06872 1.21358,-0.18161 0.12971,-0.0299 0.14318,-0.03418 0.14325,-0.04555 3.1e-4,-0.03744 -0.33117,-4.615519 -0.33439,-4.61866 -0.002,-0.0021 -0.0488,0.01111 -0.10376,0.0293 -0.77581,0.256517 -1.23883,0.246738 -1.99836,-0.04219 -0.0642,-0.0244 -0.11806,-0.04306 -0.11983,-0.04147 -0.003,0.0029 -0.58265,4.606824 -0.58001,4.608809 8e-4,8.05e-4 0.0588,0.01745 0.12871,0.03743 0.4775,0.136368 0.83716,0.209267 1.18821,0.240851 0.0823,0.0074 0.37834,0.01581 0.4625,0.0131 z"
       id="path13477-3" /><path
       style="fill:#33b4ab;fill-opacity:1;stroke:none;stroke-width:0.0130366;stroke-linecap:round;stroke-dasharray:none;stroke-dashoffset:0;stroke-opacity:1"
       d="m 206.12544,60.142275 c 0.29067,-0.01874 0.67053,-0.06655 0.94079,-0.118391 0.38288,-0.07344 0.37409,-0.07062 0.3707,-0.11856 -0.14573,-2.064494 -0.25179,-3.5306 -0.25579,-3.534973 -0.004,-0.0032 -0.0961,0.01497 -0.20705,0.04005 -0.53781,0.121861 -0.92631,0.166353 -1.36408,0.156222 -0.4368,-0.01015 -0.75575,-0.0602 -1.28077,-0.20116 -0.15065,-0.04044 -0.27717,-0.07062 -0.28114,-0.06703 -0.0146,0.01326 -0.45102,3.541071 -0.43936,3.552353 0.0267,0.02591 0.48736,0.136445 0.80113,0.192264 0.45947,0.08173 1.26463,0.128286 1.71563,0.09919 z"
       id="path13479-1" /><path
       style="fill:#e0e0e0;fill-opacity:1;stroke:none;stroke-width:0.0130366;stroke-linecap:round;stroke-dasharray:none;stroke-dashoffset:0;stroke-opacity:1"
       d="m 206.04468,63.168841 c 0.2958,-0.01567 0.60675,-0.04975 0.88473,-0.09649 0.26555,-0.04473 0.68434,-0.141647 0.71038,-0.164528 0.0123,-0.01064 -0.18287,-2.861456 -0.19698,-2.875537 -0.004,-0.0032 -0.0616,0.0076 -0.12999,0.024 -0.17943,0.04276 -0.62305,0.112225 -0.87024,0.136265 -0.52707,0.05126 -1.1367,0.04643 -1.63609,-0.01297 -0.26709,-0.03178 -0.78682,-0.129632 -1.0177,-0.191638 -0.13921,-0.03737 -0.20076,-0.04759 -0.20538,-0.03406 -0.0161,0.04728 -0.353,2.813292 -0.34518,2.834243 0.0161,0.04308 0.51651,0.181032 0.94794,0.261292 0.51896,0.09655 1.32036,0.148003 1.85854,0.119359 z"
       id="path13481-9" /><path
       style="fill:#33b4ab;fill-opacity:1;stroke:none;stroke-width:0.0130366;stroke-linecap:round;stroke-dasharray:none;stroke-dashoffset:0;stroke-opacity:1"
       d="m 205.74486,65.785781 c 0.70448,-0.004 1.33985,-0.07257 1.89316,-0.204081 0.20435,-0.04857 0.20828,-0.05037 0.20182,-0.09428 -0.004,-0.02452 -0.0447,-0.59454 -0.092,-1.266495 -0.0466,-0.672003 -0.0865,-1.223454 -0.088,-1.225497 -0.001,-0.0021 -0.0542,0.0095 -0.11736,0.02693 -1.17985,0.314461 -2.69972,0.306923 -3.92596,-0.01934 -0.13043,-0.03473 -0.27189,-0.07587 -0.31435,-0.09139 -0.0424,-0.01551 -0.0798,-0.02588 -0.083,-0.02305 -0.008,0.0071 -0.32291,2.514788 -0.31678,2.520917 0.0112,0.01158 0.31954,0.09871 0.50455,0.142808 0.46323,0.110378 0.98187,0.18226 1.49819,0.207635 0.18951,0.0094 0.37232,0.01943 0.4063,0.0225 0.0339,0.0029 0.22899,0.0043 0.43334,0.0033 z"
       id="path13483-4" /></g></svg>
