<?xml version="1.0" encoding="UTF-8" standalone="no"?>
<!-- Created with Inkscape (http://www.inkscape.org/) -->

<svg
   width="22.88298mm"
   height="6.6753845mm"
   viewBox="0 0 22.88298 6.6753844"
   version="1.1"
   id="svg5"
   inkscape:version="1.2.2 (b0a8486541, 2022-12-01)"
   sodipodi:docname="full.svg"
   xml:space="preserve"
   inkscape:export-filename="logos\full.svg"
   inkscape:export-xdpi="300"
   inkscape:export-ydpi="300"
   xmlns:inkscape="http://www.inkscape.org/namespaces/inkscape"
   xmlns:sodipodi="http://sodipodi.sourceforge.net/DTD/sodipodi-0.dtd"
   xmlns="http://www.w3.org/2000/svg"
   xmlns:svg="http://www.w3.org/2000/svg"><sodipodi:namedview
     id="namedview7"
     pagecolor="#ffffff"
     bordercolor="#000000"
     borderopacity="0.25"
     inkscape:showpageshadow="2"
     inkscape:pageopacity="0.0"
     inkscape:pagecheckerboard="0"
     inkscape:deskcolor="#d1d1d1"
     inkscape:document-units="mm"
     showgrid="false"
     inkscape:zoom="1.7368028"
     inkscape:cx="283.27914"
     inkscape:cy="199.7924"
     inkscape:window-width="2560"
     inkscape:window-height="1411"
     inkscape:window-x="0"
     inkscape:window-y="0"
     inkscape:window-maximized="1"
     inkscape:current-layer="layer1"><inkscape:grid
       type="xygrid"
       id="grid1834"
       originx="0"
       originy="0" /></sodipodi:namedview><defs
     id="defs2" /><g
     inkscape:label="Calque 1"
     inkscape:groupmode="layer"
     id="layer1"
     transform="translate(-192.21587,-67.746279)"><g
       id="g34395"
       transform="matrix(1.4719796,0,0,1.3998054,-82.282444,-83.994542)"><rect
         style="fill:none;fill-opacity:1;stroke:#030303;stroke-width:0.365;stroke-linecap:round;stroke-dasharray:none;stroke-dashoffset:0;stroke-opacity:1"
         id="rect14203"
         width="4.3944979"
         height="4.3944979"
         x="-196.4464"
         y="108.58851"
         rx="0.48105976"
         ry="0.34071645"
         transform="scale(-1,1)" /><path
         style="fill:none;fill-opacity:1;stroke:#000000;stroke-width:0.2;stroke-linecap:round;stroke-linejoin:round;stroke-dasharray:none;stroke-dashoffset:0;stroke-opacity:1"
         d="m 196.44636,109.54938 h -4.3945"
         id="path14209" /><path
         style="fill:none;fill-opacity:1;stroke:#000000;stroke-width:0.2;stroke-linecap:round;stroke-linejoin:round;stroke-dasharray:none;stroke-dashoffset:0;stroke-opacity:1"
         d="m 194.92767,108.5885 v 4.3945"
         id="path14211"
         sodipodi:nodetypes="cc" /><path
         style="fill:none;fill-opacity:1;stroke:#000000;stroke-width:0.2;stroke-linecap:round;stroke-linejoin:round;stroke-dasharray:none;stroke-dashoffset:0;stroke-opacity:1"
         d="m 193.50182,108.5885 v 4.3945"
         id="path14213"
         sodipodi:nodetypes="cc" /><path
         style="fill:none;fill-opacity:1;stroke:#000000;stroke-width:0.365;stroke-linecap:round;stroke-linejoin:round;stroke-dasharray:none;stroke-dashoffset:0;stroke-opacity:1"
         d="M 196.04479,109.11028 H 195.2587"
         id="path14215" /><path
         style="fill:none;fill-opacity:1;stroke:#000000;stroke-width:0.365;stroke-linecap:round;stroke-linejoin:round;stroke-dasharray:none;stroke-dashoffset:0;stroke-opacity:1"
         d="m 194.60555,109.11028 h -0.78609"
         id="path14217" /><path
         style="fill:none;fill-opacity:1;stroke:#000000;stroke-width:0.365;stroke-linecap:round;stroke-linejoin:round;stroke-dasharray:none;stroke-dashoffset:0;stroke-opacity:1"
         d="m 193.20867,109.11028 h -0.7861"
         id="path14219" /><path
         style="fill:none;fill-opacity:1;stroke:#000000;stroke-width:0.2;stroke-linecap:round;stroke-dasharray:none;stroke-dashoffset:0;stroke-opacity:1"
         d="m 195.92271,109.98949 h -0.68502"
         id="path14221"
         sodipodi:nodetypes="cc" /><path
         style="fill:none;fill-opacity:1;stroke:#000000;stroke-width:0.2;stroke-linecap:round;stroke-dasharray:none;stroke-dashoffset:0;stroke-opacity:1"
         d="m 195.92271,110.4649 h -0.68502"
         id="path14223"
         sodipodi:nodetypes="cc" /><path
         style="fill:none;fill-opacity:1;stroke:#000000;stroke-width:0.2;stroke-linecap:round;stroke-dasharray:none;stroke-dashoffset:0;stroke-opacity:1"
         d="m 195.92271,110.94032 h -0.68502"
         id="path14225"
         sodipodi:nodetypes="cc" /><path
         style="fill:none;fill-opacity:1;stroke:#000000;stroke-width:0.2;stroke-linecap:round;stroke-dasharray:none;stroke-dashoffset:0;stroke-opacity:1"
         d="m 195.92271,111.41573 h -0.68502"
         id="path14227"
         sodipodi:nodetypes="cc" /><path
         style="fill:none;fill-opacity:1;stroke:#000000;stroke-width:0.2;stroke-linecap:round;stroke-dasharray:none;stroke-dashoffset:0;stroke-opacity:1"
         d="m 195.92271,111.89114 h -0.68502"
         id="path14229"
         sodipodi:nodetypes="cc" /><path
         style="fill:none;fill-opacity:1;stroke:#000000;stroke-width:0.2;stroke-linecap:round;stroke-dasharray:none;stroke-dashoffset:0;stroke-opacity:1"
         d="m 194.49187,109.98949 h -0.68502"
         id="path14231"
         sodipodi:nodetypes="cc" /><path
         style="fill:none;fill-opacity:1;stroke:#000000;stroke-width:0.2;stroke-linecap:round;stroke-dasharray:none;stroke-dashoffset:0;stroke-opacity:1"
         d="m 194.49187,110.4649 h -0.68502"
         id="path14233"
         sodipodi:nodetypes="cc" /><path
         style="fill:none;fill-opacity:1;stroke:#000000;stroke-width:0.2;stroke-linecap:round;stroke-dasharray:none;stroke-dashoffset:0;stroke-opacity:1"
         d="m 194.49187,110.94032 h -0.68502"
         id="path14235"
         sodipodi:nodetypes="cc" /><path
         style="fill:none;fill-opacity:1;stroke:#000000;stroke-width:0.2;stroke-linecap:round;stroke-dasharray:none;stroke-dashoffset:0;stroke-opacity:1"
         d="m 194.49187,111.41573 h -0.68502"
         id="path14237"
         sodipodi:nodetypes="cc" /><path
         style="fill:none;fill-opacity:1;stroke:#000000;stroke-width:0.2;stroke-linecap:round;stroke-dasharray:none;stroke-dashoffset:0;stroke-opacity:1"
         d="m 194.49187,111.89114 h -0.68502"
         id="path14239"
         sodipodi:nodetypes="cc" /><path
         style="fill:none;fill-opacity:1;stroke:#000000;stroke-width:0.2;stroke-linecap:round;stroke-dasharray:none;stroke-dashoffset:0;stroke-opacity:1"
         d="m 193.09905,109.98949 h -0.68502"
         id="path14241"
         sodipodi:nodetypes="cc" /><path
         style="fill:none;fill-opacity:1;stroke:#000000;stroke-width:0.2;stroke-linecap:round;stroke-dasharray:none;stroke-dashoffset:0;stroke-opacity:1"
         d="m 193.09905,110.4649 h -0.68502"
         id="path14243"
         sodipodi:nodetypes="cc" /><path
         style="fill:none;fill-opacity:1;stroke:#000000;stroke-width:0.2;stroke-linecap:round;stroke-dasharray:none;stroke-dashoffset:0;stroke-opacity:1"
         d="m 193.09905,110.94032 h -0.68502"
         id="path14245"
         sodipodi:nodetypes="cc" /><path
         style="fill:none;fill-opacity:1;stroke:#000000;stroke-width:0.2;stroke-linecap:round;stroke-dasharray:none;stroke-dashoffset:0;stroke-opacity:1"
         d="m 193.09905,111.41573 h -0.68502"
         id="path14247"
         sodipodi:nodetypes="cc" /><path
         style="fill:none;fill-opacity:1;stroke:#000000;stroke-width:0.2;stroke-linecap:round;stroke-dasharray:none;stroke-dashoffset:0;stroke-opacity:1"
         d="m 193.09905,111.89114 h -0.68502"
         id="path14249"
         sodipodi:nodetypes="cc" /></g><rect
       style="fill:none;fill-opacity:1;stroke:#030303;stroke-width:0.523935;stroke-linecap:round;stroke-dasharray:none;stroke-dashoffset:0;stroke-opacity:1"
       id="rect14201"
       width="6.4686117"
       height="6.1514421"
       x="-198.94644"
       y="68.008247"
       rx="0.70811015"
       ry="0.47693673"
       transform="scale(-1,1)" /><rect
       style="fill:none;fill-opacity:1;stroke:#030303;stroke-width:0.523935;stroke-linecap:round;stroke-dasharray:none;stroke-dashoffset:0;stroke-opacity:1"
       id="rect14199"
       width="6.4686117"
       height="6.1514421"
       x="-214.81886"
       y="68.008247"
       rx="0.70811015"
       ry="0.47693673"
       transform="scale(-1,1)" /><ellipse
       style="fill:#000000;fill-opacity:1;stroke:none;stroke-width:0.552074;stroke-linecap:round;stroke-linejoin:round;stroke-dasharray:none;stroke-opacity:1"
       id="path5634"
       cx="195.93199"
       cy="71.912788"
       rx="0.7427398"
       ry="0.66548157" /><g
       id="g8764"
       transform="matrix(1.0636776,-0.36904337,0.38807132,1.0115232,-26.157721,19.026181)"><circle
         style="fill:#000000;fill-opacity:1;stroke:none;stroke-width:0.499999;stroke-linecap:round;stroke-linejoin:round;stroke-dasharray:none;stroke-opacity:1"
         id="path5636"
         cx="167.90994"
         cy="111.96721"
         r="0.38856634" /><path
         sodipodi:type="spiral"
         style="fill:none;fill-rule:evenodd;stroke:#000000;stroke-width:0.170347;stroke-linecap:round;stroke-dasharray:none"
         id="path7304"
         sodipodi:cx="162.42763"
         sodipodi:cy="112.62142"
         sodipodi:expansion="3.4200001"
         sodipodi:revolution="2.081707"
         sodipodi:radius="1.1373975"
         sodipodi:argument="-20.727083"
         sodipodi:t0="0"
         d="m 162.42763,112.62142 c -8e-5,-2.5e-4 7.4e-4,-2.5e-4 7.7e-4,-2.4e-4 0.004,4.5e-4 0.003,0.006 0.002,0.008 -0.006,0.0136 -0.0263,0.009 -0.0356,0.002 -0.0328,-0.0242 -0.0188,-0.074 0.005,-0.0988 0.0618,-0.0643 0.16585,-0.0308 0.21747,0.0283 0.11141,0.12769 0.0439,0.32024 -0.0775,0.41352 -0.23149,0.17775 -0.55749,0.0564 -0.71085,-0.16381 -0.2671,-0.38357 -0.0663,-0.89958 0.29941,-1.13523 0.15869,-0.10227 0.34467,-0.15841 0.53285,-0.16766"
         transform="matrix(-1.0586112,1.7972404,-1.6147702,-1.1782349,521.75538,-47.358926)" /></g><path
       sodipodi:type="spiral"
       style="fill:none;fill-rule:evenodd;stroke:#000000;stroke-width:0.170403;stroke-linecap:round;stroke-dasharray:none"
       id="path7308"
       sodipodi:cx="162.42763"
       sodipodi:cy="112.62142"
       sodipodi:expansion="3.4200001"
       sodipodi:revolution="2.170516"
       sodipodi:radius="1.3120846"
       sodipodi:argument="-20.727083"
       sodipodi:t0="0"
       d="m 162.42763,112.62142 c -8e-5,-2.5e-4 7.4e-4,-2.5e-4 7.7e-4,-2.4e-4 0.004,4.5e-4 0.003,0.006 0.002,0.008 -0.006,0.0136 -0.0263,0.009 -0.0356,0.002 -0.0328,-0.0242 -0.0188,-0.074 0.005,-0.0988 0.0618,-0.0643 0.16585,-0.0308 0.21747,0.0283 0.11141,0.12769 0.0439,0.32024 -0.0775,0.41352 -0.23149,0.17775 -0.55749,0.0564 -0.71085,-0.16381 -0.2671,-0.38357 -0.0663,-0.89957 0.29941,-1.13523 0.36381,-0.23445 0.83897,-0.21196 1.20782,-0.001"
       transform="matrix(0.79181431,-2.1799737,2.2923736,0.75299,-191.04399,341.20997)" /><path
       style="fill:none;fill-opacity:1;stroke:#000000;stroke-width:0.276038;stroke-linecap:round;stroke-linejoin:round;stroke-dasharray:none;stroke-dashoffset:0;stroke-opacity:1"
       d="m 208.47047,71.677371 c 0.24211,0.0086 0.23279,-0.185964 0.28867,-0.345354 0.0559,-0.159401 0.13967,-0.912097 0.3166,-0.920959 0.17691,-0.0086 0.57733,1.469989 0.81012,1.461127 0.2328,-0.0086 0.28868,-1.797609 0.53078,-1.841895 0.24211,-0.04425 0.21418,2.34664 0.57733,2.328927 0.36316,-0.01766 0.21417,-2.771683 0.48422,-2.851394 0.27004,-0.07968 0.32591,2.984232 0.49353,2.948807 0.1676,-0.03543 0.23279,-2.904532 0.35385,-2.913372 0.12099,-0.0086 0.17692,3.471253 0.27934,3.480104 0.10247,0.0086 0.12112,-4.144249 0.2328,-4.144249 0.16881,0.805909 0.32326,3.223118 0.43767,3.170186 0.0652,0.0086 0.13035,-1.443415 0.13035,-1.443415 l 0.121,0.814684 0.14898,-0.681847 0.0932,0.407332 0.2328,-0.292228 c 0,0 0.29798,0.398502 0.42834,0.398502 0.13037,0 0.028,-0.159401 0.14898,-0.23024 0.12112,-0.07085 0.12112,0.141689 0.19557,0.132827 0.0745,-0.0086 0.11175,-0.30994 0.18623,-0.292228"
       id="path9504"
       sodipodi:nodetypes="cssssssssscccccccsssc" /></g></svg>
