<?xml version="1.0" encoding="UTF-8" standalone="no"?>
<!-- Created with Inkscape (http://www.inkscape.org/) -->

<svg
   width="70.113434mm"
   height="26.104774mm"
   viewBox="0 0 70.113432 26.104774"
   version="1.1"
   id="svg5"
   inkscape:version="1.2.2 (b0a8486541, 2022-12-01)"
   sodipodi:docname="full.svg"
   xml:space="preserve"
   inkscape:export-filename="logos\full.svg"
   inkscape:export-xdpi="300"
   inkscape:export-ydpi="300"
   xmlns:inkscape="http://www.inkscape.org/namespaces/inkscape"
   xmlns:sodipodi="http://sodipodi.sourceforge.net/DTD/sodipodi-0.dtd"
   xmlns="http://www.w3.org/2000/svg"
   xmlns:svg="http://www.w3.org/2000/svg"><sodipodi:namedview
     id="namedview7"
     pagecolor="#ffffff"
     bordercolor="#000000"
     borderopacity="0.25"
     inkscape:showpageshadow="2"
     inkscape:pageopacity="0.0"
     inkscape:pagecheckerboard="0"
     inkscape:deskcolor="#d1d1d1"
     inkscape:document-units="mm"
     showgrid="false"
     inkscape:zoom="1.7368028"
     inkscape:cx="283.27914"
     inkscape:cy="199.7924"
     inkscape:window-width="2560"
     inkscape:window-height="1411"
     inkscape:window-x="0"
     inkscape:window-y="0"
     inkscape:window-maximized="1"
     inkscape:current-layer="layer1"><inkscape:grid
       type="xygrid"
       id="grid1834"
       originx="0"
       originy="0" /></sodipodi:namedview><defs
     id="defs2" /><g
     inkscape:label="Calque 1"
     inkscape:groupmode="layer"
     id="layer1"
     transform="translate(-154.10856,-79.239939)"><path
       id="path34631"
       style="fill:#b4e7d8;stroke-width:0.281304;stroke-linecap:round;stroke-linejoin:round;stroke-dasharray:0.281304, 0.562608"
       inkscape:transform-center-x="-1.6484526"
       inkscape:transform-center-y="-0.46066141"
       d="M 161.28639,33.466978 31.676594,29.311107 157.0574,86.580316 32.20139,31.620638 44.724119,47.67711 26.474202,30.21364 5.2635108,48.47392 20.439019,31.680312 -12.034765,33.195703 19.596598,30.029614 -10.155254,17.242594 21.68763,28.901109 7.447684,4.887214 24.649582,27.983824 31.314717,-4.1659048 27.674592,26.888697 74.809457,7.3805672 30.965743,28.172815 Z"
       sodipodi:nodetypes="ccccccccccccccccccc" /><g
       id="g16192"
       transform="matrix(1.4371651,0,0,1.4371651,-140.31593,-55.65678)"><path
         style="fill:#000000;fill-opacity:1;stroke:none;stroke-width:0.0748888;stroke-linecap:round;stroke-linejoin:round;stroke-dasharray:none;stroke-dashoffset:0;stroke-opacity:1"
         d="m 211.76756,105.88953 c -0.0581,-0.007 -0.0886,-0.0267 -0.15937,-0.1022 -0.0371,-0.0395 -0.043,-0.0519 -0.0548,-0.11575 -0.0127,-0.0723 0.006,-0.18425 0.0367,-0.20888 0.0111,-0.009 0.021,-0.0211 0.021,-0.0261 0,-0.0171 0.0811,-0.0744 0.11746,-0.0828 0.0199,-0.004 0.75917,-0.008 1.64284,-0.009 l 1.6067,-2.3e-4 0.0775,-0.0309 c 0.0427,-0.017 0.079,-0.0349 0.0808,-0.0397 0.002,-0.005 0.0189,-0.0275 0.0381,-0.0504 0.0346,-0.0415 0.0348,-0.0417 0.0313,-0.12815 -0.003,-0.0745 -0.006,-0.0895 -0.0257,-0.10733 -0.0127,-0.0114 -0.0222,-0.0248 -0.0222,-0.0296 0,-0.005 -0.0211,-0.0237 -0.047,-0.0417 l -0.047,-0.0329 -1.05677,-0.005 c -1.0393,-0.005 -1.05723,-0.005 -1.08484,-0.0249 -0.0159,-0.011 -0.0408,-0.0265 -0.0564,-0.0344 -0.033,-0.0169 -0.0759,-0.0649 -0.0759,-0.0851 0,-0.008 -0.009,-0.023 -0.0199,-0.0339 -0.0166,-0.0166 -0.0199,-0.033 -0.0199,-0.10209 0,-0.0722 0.003,-0.0864 0.0248,-0.11587 0.0143,-0.0185 0.0248,-0.0377 0.0248,-0.0427 0,-0.0205 0.079,-0.0862 0.12937,-0.10767 l 0.0538,-0.0229 1.46626,-0.005 c 1.5725,-0.005 1.48585,-0.002 1.53624,-0.0535 0.0111,-0.0114 0.0278,-0.0252 0.0367,-0.0307 0.027,-0.0166 0.043,-0.12253 0.0298,-0.19912 -0.01,-0.0583 -0.0159,-0.0691 -0.053,-0.10147 -0.023,-0.02 -0.049,-0.0407 -0.0576,-0.0461 -0.009,-0.007 -0.36208,-0.0117 -0.9768,-0.0149 -0.86651,-0.004 -0.96343,-0.007 -0.98577,-0.0211 -0.0143,-0.009 -0.0367,-0.0189 -0.0513,-0.0223 -0.0324,-0.007 -0.10286,-0.0794 -0.11762,-0.12006 -0.006,-0.0163 -0.0178,-0.0438 -0.026,-0.061 -0.0181,-0.0372 -0.0127,-0.0949 0.0127,-0.16751 0.0199,-0.0539 0.0618,-0.10122 0.13144,-0.14813 l 0.0437,-0.0294 0.20576,-0.005 c 0.1899,-0.004 0.20753,-0.007 0.22884,-0.0255 0.0127,-0.0113 0.0354,-0.0281 0.0503,-0.0374 0.0143,-0.009 0.0273,-0.0229 0.0273,-0.0303 0,-0.007 0.009,-0.0201 0.0222,-0.0282 0.0202,-0.0135 0.0222,-0.0227 0.0222,-0.0978 0,-0.0822 -4.3e-4,-0.0836 -0.0421,-0.1395 -0.0318,-0.0426 -0.0511,-0.059 -0.0792,-0.0668 -0.0253,-0.007 -0.60921,-0.0103 -1.80589,-0.0103 -1.60565,-5e-5 -1.77079,-0.001 -1.79135,-0.0159 -0.0127,-0.009 -0.0265,-0.0262 -0.0314,-0.0388 -0.0111,-0.0286 0.0143,-0.27136 0.0338,-0.32679 0.008,-0.0218 0.0192,-0.0775 0.0255,-0.12383 0.006,-0.0463 0.0197,-0.10428 0.0297,-0.1288 0.009,-0.0245 0.0248,-0.0713 0.033,-0.10402 0.02,-0.0784 0.0633,-0.20233 0.0797,-0.22756 0.006,-0.0109 0.0188,-0.0379 0.0257,-0.0597 0.006,-0.0218 0.0187,-0.0465 0.026,-0.055 0.008,-0.008 0.0203,-0.035 0.0287,-0.059 0.008,-0.024 0.0213,-0.0505 0.0284,-0.059 0.006,-0.008 0.0189,-0.031 0.026,-0.0501 0.008,-0.0191 0.0208,-0.0436 0.0302,-0.0545 0.009,-0.0109 0.02,-0.0295 0.0235,-0.0412 0.003,-0.0118 0.0197,-0.038 0.0359,-0.0583 0.0162,-0.0203 0.0294,-0.0427 0.0294,-0.0499 0,-0.007 0.008,-0.0188 0.0178,-0.0259 0.01,-0.007 0.0235,-0.027 0.0305,-0.0442 0.006,-0.0172 0.0235,-0.0413 0.0367,-0.0538 0.0127,-0.0124 0.024,-0.0267 0.024,-0.0318 0,-0.005 0.0213,-0.0345 0.0473,-0.0651 0.026,-0.0307 0.0605,-0.0737 0.0765,-0.0955 0.074,-0.1005 0.35578,-0.36303 0.49236,-0.4588 0.066,-0.0464 0.14191,-0.10135 0.1554,-0.11265 0.0159,-0.0127 0.0727,-0.0453 0.13588,-0.0768 0.0224,-0.0111 0.0462,-0.0268 0.0529,-0.0348 0.006,-0.008 0.0284,-0.0198 0.0484,-0.0263 0.02,-0.007 0.047,-0.0201 0.06,-0.0302 0.0127,-0.0102 0.0417,-0.0232 0.0641,-0.0292 0.0222,-0.006 0.0508,-0.0191 0.0637,-0.0291 0.0127,-0.01 0.0374,-0.0212 0.0548,-0.0249 0.0175,-0.004 0.0454,-0.0151 0.0622,-0.0252 0.0166,-0.0102 0.0546,-0.0235 0.0841,-0.0297 0.0295,-0.006 0.0637,-0.0175 0.0759,-0.0251 0.0127,-0.008 0.0522,-0.021 0.0892,-0.0295 0.0368,-0.009 0.0916,-0.0237 0.12159,-0.0335 0.03,-0.01 0.0946,-0.0234 0.14366,-0.0299 0.049,-0.007 0.11366,-0.0193 0.14365,-0.0283 0.0829,-0.025 0.74593,-0.0243 0.84705,7.1e-4 0.0381,0.01 0.11318,0.024 0.16673,0.0324 0.0535,0.008 0.1092,0.0212 0.12381,0.0286 0.0143,0.007 0.0576,0.0188 0.0959,0.0252 0.0381,0.007 0.083,0.0197 0.0997,0.0295 0.0167,0.01 0.0479,0.021 0.0694,0.025 0.0214,0.004 0.0617,0.0181 0.0895,0.0312 0.0278,0.0132 0.0559,0.0239 0.0624,0.0239 0.006,0 0.0373,0.0132 0.0684,0.0292 0.0311,0.016 0.0684,0.0321 0.083,0.0356 0.0143,0.004 0.0343,0.0149 0.0437,0.0253 0.009,0.0103 0.0248,0.0189 0.034,0.0189 0.01,0 0.0363,0.0133 0.0603,0.0295 0.024,0.0163 0.0486,0.0296 0.0546,0.0297 0.006,1.1e-4 0.0268,0.0124 0.0461,0.0274 0.0343,0.0266 0.0733,0.0518 0.12699,0.0817 0.0397,0.0222 0.0779,0.0507 0.11636,0.0867 0.0189,0.0177 0.039,0.0322 0.0449,0.0322 0.006,0 0.0195,0.009 0.0307,0.0195 0.0111,0.0108 0.0597,0.0533 0.10811,0.0947 0.13429,0.11471 0.28307,0.26929 0.42537,0.44213 0.0127,0.0144 0.0329,0.0426 0.0465,0.0625 0.0143,0.0199 0.0392,0.0542 0.057,0.0762 0.0178,0.022 0.0322,0.0448 0.0322,0.0508 0,0.006 0.01,0.0207 0.0204,0.0327 0.0216,0.0231 0.0437,0.0598 0.0792,0.13222 0.0111,0.0241 0.0297,0.0526 0.0397,0.0633 0.01,0.0106 0.0211,0.0333 0.0246,0.0503 0.003,0.017 0.0127,0.0375 0.0195,0.0457 0.008,0.008 0.0224,0.0366 0.0338,0.0633 l 0.0208,0.0485 0.0767,-0.007 c 0.0423,-0.004 0.11238,-0.0133 0.15572,-0.0218 0.0903,-0.0176 0.38495,-0.0203 0.44114,-0.004 0.0187,0.006 0.0871,0.0165 0.15191,0.0245 0.0648,0.008 0.13144,0.0215 0.14827,0.03 0.0168,0.008 0.0616,0.0218 0.0994,0.0296 0.0378,0.008 0.0757,0.0206 0.0844,0.0284 0.008,0.008 0.0411,0.0192 0.0719,0.0255 0.0308,0.007 0.0662,0.0202 0.0786,0.0311 0.0127,0.0108 0.034,0.0223 0.0479,0.0255 0.0143,0.004 0.0389,0.0159 0.0551,0.028 0.0164,0.0121 0.0399,0.0253 0.0524,0.0292 0.0127,0.004 0.0303,0.0152 0.0397,0.0249 0.01,0.01 0.0338,0.0231 0.0541,0.0297 0.0205,0.007 0.0417,0.0206 0.0473,0.0311 0.006,0.0105 0.0165,0.019 0.0243,0.019 0.0127,0 0.0784,0.0501 0.19202,0.14531 0.0482,0.0405 0.22235,0.21339 0.23404,0.23245 0.005,0.009 0.03,0.0417 0.0544,0.073 0.0246,0.0313 0.0508,0.0686 0.0586,0.0829 0.008,0.0143 0.0219,0.0316 0.0314,0.0384 0.01,0.007 0.0203,0.0255 0.0238,0.0416 0.003,0.0161 0.0143,0.0395 0.024,0.052 0.01,0.0125 0.0255,0.044 0.0354,0.0698 0.009,0.0259 0.0213,0.0471 0.0256,0.0471 0.005,0 0.0159,0.0234 0.0249,0.052 0.009,0.0286 0.0251,0.0622 0.0348,0.0746 0.01,0.0124 0.0206,0.0414 0.0244,0.0644 0.003,0.023 0.0159,0.0563 0.0264,0.074 0.0111,0.0177 0.0256,0.0646 0.0329,0.10403 0.008,0.0395 0.0206,0.0916 0.0295,0.11583 0.01,0.0279 0.0211,0.11437 0.0295,0.23625 0.0111,0.16258 0.0111,0.22221 -2.2e-4,0.38699 -0.008,0.1198 -0.0197,0.21192 -0.0295,0.23929 -0.008,0.0245 -0.0221,0.0772 -0.0298,0.11712 -0.008,0.0399 -0.0226,0.0867 -0.0331,0.10402 -0.0111,0.0173 -0.0222,0.0509 -0.026,0.0746 -0.003,0.0237 -0.0159,0.0514 -0.0254,0.0614 -0.01,0.01 -0.0233,0.0374 -0.0295,0.0609 -0.006,0.0234 -0.0192,0.0515 -0.0289,0.0625 -0.01,0.011 -0.0205,0.0317 -0.0238,0.0463 -0.003,0.0146 -0.0163,0.0391 -0.0287,0.0545 -0.0127,0.0154 -0.0302,0.0448 -0.0396,0.0651 -0.01,0.0205 -0.0206,0.0371 -0.0252,0.0371 -0.005,0 -0.0159,0.0157 -0.0249,0.035 -0.01,0.0192 -0.0233,0.0376 -0.0316,0.0407 -0.008,0.003 -0.0143,0.0119 -0.0143,0.0196 0,0.008 -0.0127,0.0279 -0.0297,0.045 -0.0163,0.0171 -0.0297,0.0342 -0.0297,0.0381 0,0.007 -0.009,0.0187 -0.0979,0.1138 -0.0592,0.0642 -0.1942,0.18339 -0.20754,0.18339 -0.006,0 -0.0162,0.008 -0.0233,0.0182 -0.008,0.01 -0.0241,0.0241 -0.0378,0.0313 -0.0143,0.007 -0.0306,0.0212 -0.0378,0.0313 -0.008,0.01 -0.0184,0.0182 -0.0249,0.0182 -0.006,0 -0.028,0.0132 -0.0475,0.0292 -0.0194,0.016 -0.0472,0.0322 -0.0618,0.0358 -0.0143,0.004 -0.0297,0.0122 -0.0338,0.0191 -0.008,0.0149 -0.0651,0.0449 -0.0846,0.0449 -0.008,0 -0.0216,0.009 -0.0313,0.0192 -0.01,0.0106 -0.0314,0.0221 -0.0486,0.0257 -0.0172,0.004 -0.0468,0.0167 -0.0659,0.0292 -0.019,0.0125 -0.057,0.0259 -0.0841,0.0297 -0.0273,0.004 -0.0637,0.0156 -0.081,0.0262 -0.0173,0.0106 -0.0597,0.0241 -0.0941,0.03 -0.0344,0.006 -0.0886,0.0192 -0.12048,0.0298 -0.0387,0.0127 -0.10889,0.0222 -0.213,0.0286 -0.1786,0.011 -5.29432,0.0103 -5.38335,-5.8e-4 z"
         id="path22257" /><path
         style="fill:#000000;fill-opacity:1;stroke:none;stroke-width:0.0748888;stroke-linecap:round;stroke-linejoin:round;stroke-dasharray:none;stroke-dashoffset:0;stroke-opacity:1"
         d="m 209.03035,103.84031 c -0.0217,-0.01 -0.0513,-0.0208 -0.0656,-0.0244 -0.0143,-0.004 -0.0424,-0.0255 -0.0624,-0.0487 -0.02,-0.0232 -0.0425,-0.049 -0.0502,-0.0574 -0.008,-0.008 -0.0187,-0.0282 -0.0249,-0.0442 -0.0143,-0.0376 -0.0143,-0.17039 -5.8e-4,-0.20659 0.0143,-0.0375 0.0932,-0.11059 0.15428,-0.14347 l 0.0495,-0.0266 2.15384,-0.003 2.15384,-0.003 0.0438,0.0212 c 0.0608,0.0295 0.0962,0.0613 0.13842,0.12498 0.0336,0.0507 0.0363,0.0603 0.0368,0.13029 5.2e-4,0.0714 -0.0163,0.13997 -0.0343,0.13997 -0.005,0 -0.0111,0.01 -0.0143,0.0215 -0.0111,0.0329 -0.0624,0.0759 -0.13048,0.10806 l -0.0616,0.0291 -2.1229,-3.4e-4 c -2.02466,-3.3e-4 -2.12471,-10e-4 -2.16251,-0.0182 z"
         id="path22259" /><path
         style="fill:#000000;fill-opacity:1;stroke:none;stroke-width:0.0748888;stroke-linecap:round;stroke-linejoin:round;stroke-dasharray:none;stroke-dashoffset:0;stroke-opacity:1"
         d="m 209.53273,104.86955 c -0.0179,-0.004 -0.0407,-0.0151 -0.0503,-0.0239 -0.01,-0.009 -0.0217,-0.0162 -0.0268,-0.0164 -0.0172,-7e-4 -0.0625,-0.0442 -0.0978,-0.0937 -0.0335,-0.0471 -0.0352,-0.0535 -0.0352,-0.13159 0,-0.08 0.0179,-0.1508 0.0381,-0.1508 0.005,0 0.0127,-0.0113 0.0159,-0.0252 0.003,-0.0138 0.0143,-0.0281 0.023,-0.0315 0.01,-0.004 0.0257,-0.0163 0.0368,-0.0284 0.0111,-0.0121 0.0479,-0.0313 0.0819,-0.0426 0.0608,-0.0203 0.076,-0.0207 0.99332,-0.0209 1.00828,-2.8e-4 0.92315,-0.004 1.03666,0.0454 0.028,0.0122 0.10271,0.10003 0.10303,0.12124 1.9e-4,0.009 0.01,0.0345 0.0195,0.0564 0.0229,0.0475 0.0244,0.0757 0.006,0.11741 -0.008,0.0172 -0.0194,0.0468 -0.0264,0.0659 -0.0111,0.0304 -0.0251,0.0501 -0.064,0.0895 -0.005,0.006 -0.032,0.0245 -0.0594,0.042 l -0.0494,0.0319 -0.95619,0.001 c -0.52589,7e-4 -0.97086,-0.002 -0.98878,-0.007 z"
         id="path22261" /><path
         style="fill:#000000;fill-opacity:1;stroke:none;stroke-width:0.0748888;stroke-linecap:round;stroke-linejoin:round;stroke-dasharray:none;stroke-dashoffset:0;stroke-opacity:1"
         d="m 210.11023,105.89213 c -0.0802,-0.007 -0.1127,-0.0146 -0.13001,-0.0308 -0.0111,-0.01 -0.0311,-0.0257 -0.0461,-0.0354 -0.0143,-0.01 -0.0436,-0.0451 -0.0641,-0.0785 -0.034,-0.0555 -0.0372,-0.0669 -0.0365,-0.13016 5.6e-4,-0.0595 0.005,-0.0774 0.033,-0.12615 0.0449,-0.0787 0.11524,-0.13319 0.18226,-0.1413 0.0284,-0.004 0.28802,-0.005 0.57706,-0.003 0.50683,0.003 0.52653,0.004 0.5538,0.0229 0.0159,0.0109 0.0386,0.0265 0.0513,0.0347 0.0224,0.0144 0.083,0.0859 0.0832,0.098 4e-5,0.004 0.005,0.0313 0.01,0.0621 0.006,0.041 0.005,0.0741 -0.005,0.1235 -0.0127,0.0602 -0.0192,0.0721 -0.0613,0.11056 -0.0259,0.0237 -0.0562,0.0516 -0.0671,0.0622 -0.0111,0.0105 -0.04,0.0218 -0.0644,0.0251 -0.0428,0.006 -0.95516,0.0117 -1.01525,0.007 z"
         id="path22263" /><path
         style="fill:#000000;fill-opacity:1;stroke:none;stroke-width:0.0748888;stroke-linecap:round;stroke-linejoin:round;stroke-dasharray:none;stroke-dashoffset:0;stroke-opacity:1"
         d="m 212.18917,104.87016 c -0.0172,-0.004 -0.0435,-0.0175 -0.0582,-0.0292 -0.0143,-0.0117 -0.0321,-0.0213 -0.0381,-0.0213 -0.0159,0 -0.0625,-0.0517 -0.0771,-0.0854 -0.006,-0.0157 -0.0203,-0.0392 -0.0302,-0.0522 -0.0302,-0.0401 -0.0241,-0.13251 0.0127,-0.20315 0.0421,-0.0798 0.0816,-0.11624 0.1602,-0.14772 0.0824,-0.033 0.0968,-0.0331 0.18135,-0.001 0.0778,0.0292 0.11683,0.0669 0.16383,0.15784 0.0411,0.0796 0.0419,0.13836 0.003,0.21341 -0.0303,0.058 -0.0935,0.12839 -0.11524,0.12839 -0.006,0 -0.0206,0.009 -0.03,0.0198 -0.009,0.0109 -0.0292,0.0199 -0.0443,0.0199 -0.0159,6e-5 -0.043,0.002 -0.0621,0.004 -0.019,0.002 -0.0487,7e-4 -0.066,-0.004 z"
         id="path22265" /><path
         style="fill:#000000;fill-opacity:1;stroke:none;stroke-width:0.0374443;stroke-linecap:round;stroke-linejoin:round;stroke-dasharray:none;stroke-dashoffset:0;stroke-opacity:1"
         d="m 205.58763,103.97729 c -0.008,-0.004 -0.0199,-0.0124 -0.0259,-0.0181 l -0.0111,-0.0103 0.003,-0.18 c 0.005,-0.37935 0.003,-0.49538 -0.005,-0.51462 -0.0127,-0.0262 -0.0439,-0.0486 -0.0936,-0.0667 -0.0246,-0.009 -0.0602,-0.024 -0.0792,-0.0336 -0.0253,-0.0127 -0.0541,-0.0212 -0.10524,-0.0313 -0.0401,-0.008 -0.0852,-0.0204 -0.10445,-0.0288 -0.0186,-0.008 -0.0625,-0.0226 -0.0978,-0.0322 -0.0586,-0.0159 -0.17467,-0.0573 -0.19709,-0.0704 -0.01,-0.005 -0.008,-0.007 0.003,-0.0276 0.006,-0.0122 0.017,-0.0258 0.0216,-0.03 0.0203,-0.0182 0.13445,-0.0577 0.23153,-0.08 0.0199,-0.004 0.0472,-0.0156 0.0635,-0.0258 0.0226,-0.014 0.0414,-0.0203 0.0867,-0.0294 0.0656,-0.0132 0.0852,-0.0195 0.12842,-0.0412 0.0168,-0.008 0.0451,-0.0209 0.063,-0.0276 0.0857,-0.0323 0.10588,-0.0794 0.089,-0.20882 -0.008,-0.0575 -0.008,-0.0807 -0.002,-0.23143 0.005,-0.13579 0.005,-0.18222 -2.8e-4,-0.24479 l -0.006,-0.0772 0.0127,-0.0113 c 0.008,-0.007 0.0214,-0.0136 0.0316,-0.0164 0.0178,-0.005 0.0193,-0.004 0.039,0.0152 0.0111,0.0111 0.0314,0.0362 0.0446,0.0556 0.0564,0.083 0.11,0.15498 0.14429,0.19359 0.0127,0.0135 0.0251,0.0313 0.0292,0.0396 0.0111,0.022 0.0505,0.0833 0.0735,0.11372 0.0467,0.062 0.11175,0.13975 0.12238,0.14629 0.006,0.004 0.0248,0.01 0.0411,0.0125 0.0383,0.007 0.0771,-3.9e-4 0.12143,-0.0234 0.0178,-0.009 0.0466,-0.0195 0.0644,-0.0229 0.0686,-0.013 0.12254,-0.0268 0.14857,-0.038 0.10953,-0.0473 0.16742,-0.0659 0.25699,-0.0821 0.0817,-0.0148 0.0916,-0.0177 0.0962,-0.0278 0.003,-0.007 0.008,-0.0113 0.0127,-0.0113 0.0111,0 0.003,0.05 -0.0127,0.0842 -0.0268,0.0592 -0.0358,0.0725 -0.0846,0.1274 -0.028,0.0314 -0.0508,0.0591 -0.0508,0.0617 0,0.003 -0.0111,0.0162 -0.0241,0.0304 -0.0127,0.0141 -0.0292,0.0358 -0.0354,0.048 -0.0162,0.0321 -0.0657,0.10437 -0.0816,0.1189 -0.008,0.007 -0.0179,0.0213 -0.0235,0.0322 -0.006,0.0109 -0.0195,0.0332 -0.0311,0.0496 -0.0338,0.0479 -0.0421,0.0677 -0.0421,0.10163 0,0.0326 0.0159,0.0718 0.0435,0.10821 0.008,0.01 0.0214,0.0297 0.0309,0.044 0.009,0.0143 0.0187,0.026 0.0206,0.026 0.005,10e-6 0.0633,0.0856 0.0802,0.11654 0.008,0.0136 0.0197,0.0315 0.0273,0.0396 0.008,0.008 0.0222,0.027 0.0325,0.042 0.01,0.0151 0.0271,0.0361 0.0371,0.0471 0.0313,0.0337 0.0778,0.0985 0.0849,0.1185 0.003,0.0105 0.0111,0.0238 0.0179,0.0295 0.006,0.006 0.0111,0.0138 0.0111,0.0179 1.1e-4,0.004 0.005,0.017 0.009,0.0286 l 0.009,0.0213 -0.0111,0.005 c -0.009,0.004 -0.0179,0.002 -0.0504,-0.0133 -0.0283,-0.0135 -0.0584,-0.0226 -0.11065,-0.0331 -0.0673,-0.0135 -0.0911,-0.0213 -0.21653,-0.0712 -0.0224,-0.009 -0.0637,-0.0209 -0.0916,-0.0266 -0.0622,-0.0127 -0.0943,-0.0227 -0.12032,-0.0376 -0.043,-0.0244 -0.0914,-0.0322 -0.13445,-0.0213 -0.0188,0.004 -0.0257,0.0102 -0.0428,0.0335 -0.0111,0.0152 -0.0411,0.0505 -0.0662,0.0783 -0.0251,0.0278 -0.0493,0.0575 -0.0537,0.066 -0.005,0.009 -0.0159,0.025 -0.0241,0.0366 -0.009,0.0116 -0.0235,0.0353 -0.0325,0.0529 -0.01,0.0175 -0.0291,0.0453 -0.0443,0.0617 -0.0159,0.0164 -0.0383,0.0443 -0.051,0.0619 -0.0127,0.0176 -0.0297,0.0399 -0.0378,0.0494 -0.008,0.01 -0.0252,0.034 -0.0381,0.0545 -0.0241,0.0379 -0.0648,0.0842 -0.0741,0.0842 -0.003,-1e-5 -0.0127,-0.004 -0.02,-0.008 z"
         id="path22269" /><path
         style="fill:#000000;fill-opacity:1;stroke:none;stroke-width:0.149777;stroke-linecap:round;stroke-linejoin:round;stroke-dasharray:none;stroke-dashoffset:0;stroke-opacity:1"
         d="m 206.65609,107.95041 c -0.006,-0.0627 -0.0111,-0.2248 -0.0111,-0.36031 -5.9e-4,-0.21044 -0.006,-0.25121 -0.0362,-0.27949 -0.0329,-0.0308 -0.38932,-0.15772 -0.44273,-0.15772 -0.0127,0 -0.0738,-0.0287 -0.13509,-0.0637 l -0.11126,-0.0637 0.0692,-0.0178 c 0.0381,-0.01 0.12715,-0.0382 0.19805,-0.063 0.0708,-0.0248 0.19309,-0.0648 0.27166,-0.0888 0.0786,-0.024 0.15302,-0.0559 0.16531,-0.0707 0.0143,-0.0176 0.0235,-0.15036 0.0256,-0.37917 0.003,-0.30476 0.008,-0.35292 0.0346,-0.35821 0.0208,-0.004 0.10477,0.0898 0.24492,0.27361 0.1173,0.15385 0.22621,0.28465 0.24195,0.29069 0.0159,0.006 0.0616,-0.002 0.1019,-0.0189 0.099,-0.0405 0.57059,-0.19311 0.59645,-0.19311 0.0311,0 -0.003,0.0775 -0.0852,0.18979 -0.33491,0.46121 -0.33923,0.47166 -0.24025,0.58296 0.10143,0.11399 0.32991,0.46006 0.32031,0.48507 -0.0127,0.0334 -0.10921,0.0122 -0.45371,-0.0997 l -0.23284,-0.0757 -0.0568,0.0545 c -0.0313,0.03 -0.13604,0.1609 -0.23278,0.29092 -0.0967,0.13002 -0.18617,0.23645 -0.19871,0.23648 -0.0127,4e-5 -0.0271,-0.0471 -0.0332,-0.11388 z"
         id="path22271" /><path
         style="fill:#000000;fill-opacity:1;stroke:none;stroke-width:0.149777;stroke-linecap:round;stroke-linejoin:round;stroke-dasharray:none;stroke-dashoffset:0;stroke-opacity:1"
         d="m 209.66062,111.05136 c -0.009,-0.0137 -0.0162,-0.17751 -0.0165,-0.36419 -4e-4,-0.25556 -0.008,-0.34738 -0.0273,-0.37171 -0.0143,-0.0178 -0.077,-0.0466 -0.1381,-0.0642 -0.0613,-0.0176 -0.1208,-0.0395 -0.13254,-0.0488 -0.0111,-0.009 -0.0802,-0.0305 -0.15207,-0.0472 -0.1427,-0.0331 -0.25615,-0.0881 -0.24598,-0.11921 0.006,-0.0202 0.16797,-0.0816 0.47514,-0.18073 0.096,-0.031 0.18528,-0.0691 0.19816,-0.0846 0.0161,-0.0193 0.0233,-0.13656 0.0233,-0.37086 0,-0.39745 0.0127,-0.43554 0.10857,-0.324 0.0324,0.0376 0.12318,0.16074 0.20186,0.27351 0.0825,0.11819 0.16338,0.21277 0.19104,0.22329 0.0488,0.0185 0.23341,-0.0205 0.34064,-0.072 0.0273,-0.013 0.0763,-0.0293 0.10889,-0.036 0.0327,-0.007 0.10048,-0.025 0.15048,-0.0406 0.16626,-0.0519 0.16,-0.0209 -0.0582,0.28789 -0.11048,0.15637 -0.20098,0.30214 -0.20104,0.32394 -5e-5,0.0218 0.0622,0.12433 0.13826,0.22786 0.16508,0.22452 0.25919,0.3779 0.24548,0.40009 -0.0127,0.0205 -0.0597,0.01 -0.3642,-0.0837 -0.1362,-0.0418 -0.26796,-0.0817 -0.29276,-0.0887 -0.0625,-0.0176 -0.12635,0.0496 -0.35565,0.37377 -0.16095,0.22764 -0.16697,0.23331 -0.1975,0.18615 z"
         id="path22273" /><path
         style="fill:#000000;fill-opacity:1;stroke:none;stroke-width:0.149777;stroke-linecap:round;stroke-linejoin:round;stroke-dasharray:none;stroke-dashoffset:0;stroke-opacity:1"
         d="m 213.72892,111.98263 c -0.006,-0.0245 -0.0127,-0.17886 -0.0127,-0.34297 -1.9e-4,-0.20776 -0.008,-0.30871 -0.0253,-0.3324 -0.0143,-0.0187 -0.0738,-0.048 -0.13381,-0.0651 -0.34155,-0.0975 -0.54847,-0.17047 -0.55431,-0.19562 -0.006,-0.0249 0.1879,-0.10588 0.45169,-0.18886 0.27039,-0.085 0.26696,-0.0793 0.26075,-0.44025 -0.006,-0.35291 -0.003,-0.41129 0.017,-0.41129 0.01,0 0.11381,0.12967 0.23281,0.28817 0.13588,0.18111 0.23299,0.29236 0.26123,0.29945 0.0248,0.007 0.0827,-0.002 0.12873,-0.0191 0.0462,-0.0167 0.12842,-0.0451 0.18294,-0.0631 0.0544,-0.0181 0.12826,-0.0454 0.16374,-0.0609 0.0984,-0.0427 0.22264,-0.0585 0.22264,-0.0285 0,0.0279 -0.11191,0.19704 -0.27058,0.4088 -0.12239,0.1634 -0.13096,0.21892 -0.0508,0.32832 0.0295,0.0403 0.0806,0.11015 0.11334,0.15512 0.0327,0.045 0.0929,0.12762 0.13381,0.18369 0.0938,0.12861 0.0959,0.16031 0.01,0.14662 -0.10207,-0.0163 -0.23672,-0.0517 -0.31207,-0.0821 -0.0381,-0.0154 -0.12191,-0.0436 -0.18596,-0.0627 -0.15302,-0.0455 -0.18296,-0.0285 -0.33257,0.19038 -0.20821,0.3045 -0.23331,0.33685 -0.26143,0.33685 -0.0159,0 -0.0332,-0.0201 -0.0398,-0.0446 z"
         id="path22275" /><path
         style="fill:#000000;fill-opacity:1;stroke:none;stroke-width:0.149777;stroke-linecap:round;stroke-linejoin:round;stroke-dasharray:none;stroke-dashoffset:0;stroke-opacity:1"
         d="m 217.65217,110.98295 c -0.008,-0.007 -0.0127,-0.17091 -0.0127,-0.36451 v -0.35201 l -0.0548,-0.0389 c -0.0302,-0.0214 -0.0948,-0.0493 -0.14366,-0.0619 -0.29095,-0.075 -0.47557,-0.15169 -0.47489,-0.19729 4.9e-4,-0.0319 0.13,-0.0849 0.38658,-0.1584 0.0657,-0.0188 0.15493,-0.0515 0.19815,-0.0726 l 0.0786,-0.0384 0.005,-0.34676 c 0.003,-0.19071 0.01,-0.35827 0.0143,-0.37237 0.0193,-0.0525 0.0884,0.0182 0.25752,0.26366 0.094,0.1364 0.19213,0.26191 0.21808,0.2789 0.0433,0.0285 0.0546,0.0276 0.14,-0.0102 0.0511,-0.0226 0.11191,-0.0411 0.13493,-0.0412 0.0231,-6e-5 0.0652,-0.0122 0.0936,-0.0271 0.0284,-0.0148 0.0997,-0.038 0.15858,-0.0516 0.0587,-0.0135 0.12588,-0.0366 0.14922,-0.0512 0.0691,-0.0432 0.0943,0.0267 0.0367,0.1012 -0.24528,0.31725 -0.36635,0.49219 -0.36635,0.52941 0,0.0503 0.0954,0.19312 0.35589,0.53286 0.0424,0.0553 0.0537,0.11575 0.0215,0.11575 -0.01,0 -0.0394,-0.008 -0.0645,-0.0181 -0.0251,-0.01 -0.17764,-0.0612 -0.33915,-0.11394 l -0.29367,-0.0958 -0.063,0.0731 c -0.0805,0.0933 -0.12159,0.14904 -0.24997,0.33844 -0.10033,0.14801 -0.16033,0.20547 -0.18691,0.17891 z"
         id="path22277" /><path
         style="fill:#000000;fill-opacity:1;stroke:none;stroke-width:0.149777;stroke-linecap:round;stroke-linejoin:round;stroke-dasharray:none;stroke-dashoffset:0;stroke-opacity:1"
         d="m 220.68397,107.97023 c -0.006,-0.0409 -0.0127,-0.20805 -0.0127,-0.37152 -2.8e-4,-0.16346 -0.008,-0.30855 -0.0165,-0.3224 -0.0166,-0.0263 -0.18799,-0.0979 -0.29052,-0.12148 -0.0327,-0.008 -0.14191,-0.0398 -0.24274,-0.0718 -0.26814,-0.085 -0.2472,-0.12478 0.12382,-0.23521 0.0871,-0.026 0.21946,-0.0717 0.29397,-0.10172 l 0.13541,-0.0546 -0.003,-0.339 c -0.005,-0.467 -0.008,-0.43645 0.0419,-0.40127 0.0362,0.0254 0.16253,0.18601 0.37986,0.48315 0.0338,0.0462 0.076,0.0887 0.0936,0.0943 0.0178,0.006 0.11191,-0.0172 0.2093,-0.0507 0.35111,-0.12087 0.51939,-0.16838 0.53631,-0.15145 0.0229,0.0229 -0.0192,0.093 -0.20886,0.34728 -0.0998,0.13386 -0.18638,0.26759 -0.19228,0.29714 -0.01,0.0448 0.017,0.0902 0.15508,0.27138 0.0911,0.11969 0.19484,0.25998 0.23036,0.31174 l 0.0646,0.0941 h -0.0616 c -0.034,0 -0.0789,-0.009 -0.0999,-0.0204 -0.0694,-0.0371 -0.55386,-0.17773 -0.61251,-0.17773 -0.0376,0 -0.16253,0.14215 -0.28719,0.32693 -0.0368,0.0545 -0.0921,0.13664 -0.12285,0.18256 -0.0308,0.0459 -0.066,0.0838 -0.0783,0.0842 -0.0127,3.9e-4 -0.0278,-0.0327 -0.0345,-0.0736 z"
         id="path22279" /><path
         style="fill:#000000;fill-opacity:1;stroke:none;stroke-width:0.149777;stroke-linecap:round;stroke-linejoin:round;stroke-dasharray:none;stroke-dashoffset:0;stroke-opacity:1"
         d="m 221.77259,103.85095 c -0.006,-0.0165 -0.0111,-0.17005 -0.0111,-0.3411 0,-0.24941 -0.006,-0.31972 -0.0308,-0.35504 -0.017,-0.0242 -0.0445,-0.044 -0.0611,-0.044 -0.0495,0 -0.58176,-0.18363 -0.58176,-0.2007 0,-0.0431 0.0975,-0.0929 0.30072,-0.15381 0.12334,-0.037 0.2578,-0.0884 0.29867,-0.11421 l 0.0743,-0.047 2.9e-4,-0.32171 c 1.5e-4,-0.17693 0.008,-0.33377 0.0173,-0.34851 0.0262,-0.0412 0.0903,0.002 0.1656,0.11248 0.11381,0.16634 0.31795,0.41961 0.33825,0.41961 0.0111,0 0.11858,-0.0323 0.23951,-0.0717 0.42546,-0.13875 0.51823,-0.14567 0.43502,-0.0325 -0.0221,0.03 -0.0833,0.11703 -0.13619,0.19332 -0.0529,0.0763 -0.12572,0.17787 -0.16182,0.22575 -0.0362,0.0479 -0.0657,0.10295 -0.0657,0.12233 0,0.0194 0.0292,0.0738 0.0649,0.12099 0.12159,0.16072 0.33138,0.47203 0.33138,0.49191 0,0.0109 -0.0111,0.0198 -0.024,0.0198 -0.0271,0 -0.43515,-0.12438 -0.5705,-0.17392 -0.0952,-0.0348 -0.14048,-0.0341 -0.16182,0.002 -0.008,0.0125 -0.0499,0.0718 -0.0948,0.13177 -0.0449,0.0599 -0.12365,0.16617 -0.17502,0.23606 -0.0979,0.13316 -0.17018,0.18151 -0.19084,0.12764 z"
         id="path22281" /><path
         style="fill:#000000;fill-opacity:1;stroke:none;stroke-width:0.149777;stroke-linecap:round;stroke-linejoin:round;stroke-dasharray:none;stroke-dashoffset:0;stroke-opacity:1"
         d="m 220.66309,99.757204 c -0.006,-0.08991 -0.009,-0.246852 -0.006,-0.348763 0.005,-0.178408 0.003,-0.186556 -0.0446,-0.21903 -0.0605,-0.04099 -0.17755,-0.08791 -0.29745,-0.119227 -0.27353,-0.07147 -0.34213,-0.103353 -0.32397,-0.150688 0.009,-0.0254 0.18788,-0.09397 0.40742,-0.156926 0.16174,-0.04637 0.24027,-0.09465 0.25659,-0.157752 0.008,-0.0317 0.0111,-0.143164 0.006,-0.247679 -0.01,-0.232547 0.006,-0.378017 0.0432,-0.392281 0.0265,-0.01016 0.16227,0.122402 0.16404,0.160192 0.002,0.02489 0.18617,0.271025 0.24547,0.326607 0.0633,0.05927 0.12858,0.05239 0.39933,-0.04216 0.10906,-0.03808 0.23673,-0.07563 0.2839,-0.0835 l 0.0857,-0.01429 -0.0338,0.06639 c -0.0187,0.0365 -0.10841,0.167476 -0.19969,0.291016 -0.0913,0.123545 -0.16584,0.239757 -0.16584,0.258263 0,0.03323 0.14413,0.254937 0.26572,0.408764 0.13016,0.164632 0.1723,0.269118 0.0959,0.237632 -0.019,-0.0078 -0.0792,-0.02648 -0.13382,-0.04135 -0.0544,-0.01492 -0.17487,-0.05507 -0.2675,-0.08932 -0.0927,-0.03424 -0.19627,-0.06647 -0.23029,-0.0716 -0.0759,-0.01143 -0.0989,0.01095 -0.28986,0.281698 -0.13619,0.193201 -0.20102,0.267493 -0.23321,0.267493 -0.009,0 -0.0211,-0.07355 -0.0276,-0.163471 z"
         id="path22283" /><path
         style="fill:#000000;fill-opacity:1;stroke:none;stroke-width:0.149777;stroke-linecap:round;stroke-linejoin:round;stroke-dasharray:none;stroke-dashoffset:0;stroke-opacity:1"
         d="m 217.65305,96.97513 c -0.008,-0.0073 -0.0127,-0.176988 -0.0127,-0.376942 v -0.36355 l -0.0613,-0.03729 c -0.0338,-0.02053 -0.10287,-0.04782 -0.1535,-0.06071 -0.11778,-0.02997 -0.42316,-0.140736 -0.44813,-0.162563 -0.05,-0.04367 0.1998,-0.161767 0.43514,-0.205717 0.0437,-0.0081 0.11271,-0.03686 0.1535,-0.06392 l 0.0743,-0.04912 v -0.36276 c 0,-0.199519 0.008,-0.367735 0.0179,-0.373815 0.0219,-0.01349 0.0757,0.05109 0.29055,0.348292 0.0916,0.12683 0.17897,0.235347 0.1941,0.24115 0.0159,0.0059 0.1729,-0.0378 0.35062,-0.09686 0.17773,-0.05905 0.33488,-0.107401 0.34923,-0.107401 0.0656,0 0.0179,0.08229 -0.26779,0.463518 -0.0564,0.07511 -0.10222,0.155371 -0.10222,0.178329 1.7e-4,0.03889 0.0613,0.129624 0.30041,0.445598 0.054,0.07132 0.0957,0.14764 0.0957,0.175027 0,0.0267 -0.006,0.04536 -0.0143,0.04135 -0.0718,-0.03489 -0.13889,-0.05913 -0.29226,-0.10529 -0.0981,-0.02953 -0.22629,-0.07067 -0.28492,-0.0914 -0.0862,-0.03054 -0.11223,-0.033 -0.13635,-0.01301 -0.0335,0.02778 -0.22004,0.271267 -0.31413,0.409954 -0.073,0.107718 -0.15382,0.185903 -0.17256,0.167142 z"
         id="path22285" /><path
         style="fill:#000000;fill-opacity:1;stroke:none;stroke-width:0.149777;stroke-linecap:round;stroke-linejoin:round;stroke-dasharray:none;stroke-dashoffset:0;stroke-opacity:1"
         d="m 213.71038,95.905528 c -0.008,-0.0076 -0.0143,-0.161622 -0.0143,-0.342345 -2e-4,-0.220284 -0.008,-0.34491 -0.0248,-0.378125 -0.02,-0.04056 -0.0675,-0.06312 -0.26225,-0.124719 -0.24755,-0.07827 -0.35438,-0.123622 -0.40116,-0.170334 -0.0235,-0.02358 0.01,-0.04033 0.22641,-0.115369 0.13968,-0.04832 0.28898,-0.09646 0.3317,-0.107052 0.12413,-0.03068 0.12889,-0.04672 0.13001,-0.423701 5.8e-4,-0.352951 0.0159,-0.429281 0.0679,-0.354983 0.0161,0.02272 0.0586,0.07768 0.0948,0.122147 0.036,0.04448 0.10572,0.139974 0.15477,0.212247 0.11667,0.171893 0.17109,0.231036 0.21322,0.231609 0.0333,4.43e-4 0.17046,-0.04281 0.29205,-0.09213 0.0327,-0.01333 0.12398,-0.0407 0.20276,-0.06094 0.17272,-0.0444 0.21245,-0.02627 0.1381,0.06305 -0.0262,0.03156 -0.0587,0.07829 -0.0722,0.103909 -0.0127,0.02561 -0.0783,0.121718 -0.14397,0.213601 -0.14398,0.201277 -0.1435,0.219219 0.01,0.427722 0.19659,0.266629 0.25971,0.371893 0.23676,0.394855 -0.0219,0.02199 -0.21173,-0.03113 -0.47606,-0.133211 -0.21935,-0.08473 -0.21114,-0.0893 -0.46425,0.259135 -0.18008,0.247919 -0.22041,0.294098 -0.23986,0.274647 z"
         id="path22287" /><path
         style="fill:#000000;fill-opacity:1;stroke:none;stroke-width:0.149777;stroke-linecap:round;stroke-linejoin:round;stroke-dasharray:none;stroke-dashoffset:0;stroke-opacity:1"
         d="m 209.59067,96.953488 c -0.002,-0.04084 -0.005,-0.200333 -0.005,-0.354365 -5.8e-4,-0.3303 -0.006,-0.341276 -0.1947,-0.392774 -0.16713,-0.04564 -0.40088,-0.123257 -0.44952,-0.149307 -0.0776,-0.04158 -0.0412,-0.07225 0.16316,-0.137417 0.11175,-0.03562 0.24123,-0.08169 0.28783,-0.102433 0.0467,-0.02075 0.0968,-0.03773 0.1116,-0.03773 0.0684,0 0.0802,-0.05834 0.0806,-0.39775 5.7e-4,-0.376102 0.0127,-0.416773 0.10095,-0.334124 0.0283,0.02656 0.0911,0.106242 0.13969,0.177073 0.23558,0.344108 0.27312,0.377741 0.37406,0.335249 0.14254,-0.06 0.56728,-0.177487 0.59029,-0.16326 0.0271,0.01683 0.005,0.05448 -0.19374,0.322001 -0.10365,0.139893 -0.18849,0.267833 -0.18849,0.284296 0,0.01646 0.0503,0.09999 0.11174,0.185583 0.10143,0.141147 0.14334,0.201893 0.24974,0.361402 0.019,0.02851 0.0346,0.05964 0.0346,0.06921 1.7e-4,0.02859 -0.14224,-0.0029 -0.40442,-0.08929 -0.27236,-0.08981 -0.32614,-0.09011 -0.3828,-0.0022 -0.054,0.08369 -0.28841,0.40549 -0.33189,0.455419 -0.0573,0.06587 -0.0887,0.05586 -0.0938,-0.02975 z"
         id="path22289" /><path
         style="fill:#000000;fill-opacity:1;stroke:none;stroke-width:0.149777;stroke-linecap:round;stroke-linejoin:round;stroke-dasharray:none;stroke-dashoffset:0;stroke-opacity:1"
         d="m 206.66255,99.536492 c 0,-0.386708 -0.008,-0.415017 -0.13873,-0.447497 -0.0381,-0.0095 -0.16298,-0.05035 -0.27741,-0.09077 -0.11445,-0.04042 -0.23481,-0.07935 -0.26749,-0.08657 -0.0582,-0.01286 -0.0568,-0.01444 0.0694,-0.07576 0.0708,-0.03446 0.22242,-0.09126 0.33684,-0.126243 0.11446,-0.03497 0.22366,-0.07689 0.24273,-0.09313 0.0307,-0.02611 0.0348,-0.07132 0.0348,-0.393019 0,-0.46869 0.008,-0.470505 0.2774,-0.06683 0.11064,0.165531 0.22063,0.27794 0.27192,0.27794 0.0276,0 0.16976,-0.04013 0.3158,-0.08916 0.25845,-0.0868 0.37352,-0.109132 0.36006,-0.06994 -0.008,0.02134 -0.2025,0.304922 -0.31868,0.46306 -0.041,0.05566 -0.0743,0.115909 -0.0743,0.133957 0,0.02881 0.15525,0.262371 0.33479,0.503783 0.0327,0.04389 0.0657,0.09648 0.0737,0.116863 0.0166,0.04332 0.008,0.042 -0.23994,-0.0365 -0.31644,-0.100131 -0.35724,-0.113877 -0.39107,-0.131925 -0.0849,-0.04527 -0.1119,-0.02315 -0.3273,0.268966 -0.13461,0.182537 -0.2247,0.287306 -0.24706,0.287306 -0.0324,0 -0.0352,-0.02764 -0.0352,-0.344555 z"
         id="path22291" /><path
         style="fill:#000000;fill-opacity:1;stroke:none;stroke-width:0.211817;stroke-linecap:round;stroke-linejoin:round;stroke-dasharray:none;stroke-dashoffset:0;stroke-opacity:1"
         d="m 226.98105,102.179 -0.81963,-0.007 v -1.38664 -1.386653 h 0.82663 0.82665 v 0.238183 0.238183 h -0.44492 c -0.3468,0 -0.45208,0.0086 -0.47741,0.03918 -0.0211,0.02546 -0.0297,0.135747 -0.0244,0.315247 l 0.008,0.27608 0.3923,0.014 0.39229,0.014 v 0.23819 0.23818 l -0.33625,0.007 c -0.50073,0.0102 -0.46236,-0.0167 -0.46236,0.32431 0,0.18671 0.0127,0.29993 0.0336,0.32171 0.0233,0.0234 0.17201,0.0337 0.48825,0.0337 h 0.45462 l 0.01,0.22666 c 0.005,0.13073 -0.003,0.2345 -0.0189,0.24519 -0.0159,0.0102 -0.39686,0.0152 -0.84767,0.0111 z"
         id="path22293" /><path
         style="fill:#000000;fill-opacity:1;stroke:none;stroke-width:0.211817;stroke-linecap:round;stroke-linejoin:round;stroke-dasharray:none;stroke-dashoffset:0;stroke-opacity:1"
         d="m 228.41438,102.11903 c -0.0632,-0.0287 -0.14508,-0.0946 -0.18214,-0.1465 l -0.0673,-0.0943 -0.008,-1.23996 -0.008,-1.239956 h 0.36589 0.36589 v 1.102516 c 0,1.26169 -0.0127,1.19525 0.24306,1.19525 0.24454,0 0.2333,0.0578 0.2333,-1.20012 v -1.097646 l 0.35729,-8e-6 0.35726,-6e-6 -0.008,1.22595 c -0.008,1.28218 -0.01,1.30283 -0.13302,1.41866 -0.12365,0.11571 -0.21173,0.12957 -0.81892,0.12894 -0.50725,-5.7e-4 -0.59717,-0.007 -0.69721,-0.0527 z"
         id="path22295" /><path
         style="fill:#000000;fill-opacity:1;stroke:none;stroke-width:0.211817;stroke-linecap:round;stroke-linejoin:round;stroke-dasharray:none;stroke-dashoffset:0;stroke-opacity:1"
         d="m 230.80602,102.17952 -0.32927,-0.009 v -1.38618 -1.386181 h 0.77241 c 0.71755,0 0.78193,0.0043 0.90644,0.05769 0.0962,0.04143 0.15112,0.08794 0.19435,0.164942 0.0558,0.09958 0.0603,0.146387 0.0603,0.652589 0,0.43805 -0.008,0.56255 -0.0438,0.63298 -0.0468,0.0939 -0.16568,0.20115 -0.22282,0.20115 -0.0192,0 -0.0505,0.0189 -0.0697,0.042 -0.0367,0.0442 -0.0483,0.0178 0.31835,0.72837 0.0714,0.13857 0.13001,0.26466 0.13001,0.28021 3e-5,0.0183 -0.13461,0.0234 -0.38235,0.0143 -0.30192,-0.011 -0.38682,-0.0229 -0.40332,-0.0561 -0.0111,-0.0232 -0.0463,-0.0988 -0.0773,-0.16813 -0.17532,-0.39276 -0.23501,-0.52337 -0.25917,-0.56706 -0.0143,-0.0268 -0.027,-0.0658 -0.027,-0.0867 0,-0.0598 -0.10223,-0.14145 -0.12699,-0.10144 -0.0111,0.0182 -0.0181,0.24435 -0.0159,0.5026 0.005,0.41237 -3.3e-4,0.47169 -0.0407,0.48717 -0.0253,0.01 -0.0481,0.0149 -0.0506,0.0116 -0.003,-0.004 -0.15287,-0.01 -0.33396,-0.0149 z m 0.86763,-1.54533 c 0.022,-0.0288 0.0346,-0.15329 0.0352,-0.34623 5.8e-4,-0.376731 -0.0235,-0.413318 -0.27793,-0.413318 -0.11493,0 -0.17371,0.01238 -0.18915,0.03983 -0.0127,0.0219 -0.0186,0.203958 -0.0143,0.404558 0.01,0.4131 -0.005,0.39286 0.25753,0.37226 0.097,-0.008 0.16667,-0.0288 0.18824,-0.0571 z"
         id="path22297" /><path
         style="fill:#000000;fill-opacity:1;stroke:none;stroke-width:0.211817;stroke-linecap:round;stroke-linejoin:round;stroke-dasharray:none;stroke-dashoffset:0;stroke-opacity:1"
         d="m 233.04073,102.11984 c -0.12032,-0.0568 -0.21017,-0.14753 -0.21017,-0.21229 0,-0.0221 -0.0127,-0.0479 -0.028,-0.0574 -0.0178,-0.011 -0.0279,-0.39234 -0.0279,-1.05171 0,-1.033056 1.1e-4,-1.034552 0.0659,-1.154245 0.0443,-0.08067 0.10589,-0.140449 0.18808,-0.182892 0.1154,-0.0595 0.15524,-0.06305 0.71284,-0.06305 0.55721,0 0.59755,0.0036 0.71398,0.06305 0.084,0.04296 0.14175,0.09883 0.18107,0.175136 0.0551,0.107195 0.0576,0.157355 0.0576,1.148891 0,1.16234 -5.9e-4,1.16637 -0.20114,1.303 -0.10111,0.0688 -0.11334,0.0702 -0.72144,0.0772 -0.55728,0.007 -0.62972,0.002 -0.73069,-0.0458 z m 0.87031,-0.46353 c 0.0513,-0.0375 0.0548,-0.0847 0.0618,-0.83364 0.008,-0.943871 0.0111,-0.929976 -0.22259,-0.942347 -0.25166,-0.01334 -0.24712,-0.03026 -0.24661,0.918267 2.4e-4,0.43966 0.01,0.81326 0.0211,0.83021 0.0489,0.0731 0.29969,0.091 0.38652,0.0275 z"
         id="path22299" /><path
         style="fill:#000000;fill-opacity:1;stroke:none;stroke-width:0.211817;stroke-linecap:round;stroke-linejoin:round;stroke-dasharray:none;stroke-dashoffset:0;stroke-opacity:1"
         d="m 235.10034,100.78535 v -1.387073 l 0.77759,6.45e-4 c 0.872,7.03e-4 0.94226,0.01365 1.0746,0.199274 0.0662,0.09275 0.0673,0.104765 0.0673,0.712994 v 0.61866 l -0.0786,0.10292 c -0.12905,0.16925 -0.21052,0.19641 -0.62203,0.20753 -0.54782,0.0148 -0.49037,-0.0419 -0.49037,0.48433 v 0.44782 h -0.36428 -0.36429 z m 1.17129,-0.0757 c 0.0227,-0.0227 0.0336,-0.15275 0.0336,-0.40158 0,-0.354774 -0.002,-0.369184 -0.0641,-0.402288 -0.0365,-0.01951 -0.13604,-0.03062 -0.23118,-0.02577 l -0.16703,0.0086 -0.008,0.390958 c -0.005,0.21502 -0.002,0.40732 0.006,0.42733 0.0184,0.0478 0.38307,0.0501 0.43043,0.003 z"
         id="path22301" /><path
         style="fill:#000000;fill-opacity:1;stroke:none;stroke-width:0.211817;stroke-linecap:round;stroke-linejoin:round;stroke-dasharray:none;stroke-dashoffset:0;stroke-opacity:1"
         d="m 238.18972,102.179 -0.81964,-0.007 v -1.38664 -1.386653 h 0.82663 0.82665 v 0.238183 0.238183 h -0.44274 c -0.307,0 -0.45305,0.01032 -0.47638,0.03367 -0.0457,0.04564 -0.0457,0.531627 0,0.577247 0.0229,0.0229 0.15684,0.0337 0.42033,0.0337 h 0.38669 v 0.2522 0.25219 h -0.38669 c -0.26341,0 -0.39743,0.0108 -0.42033,0.0337 -0.0216,0.0216 -0.0336,0.1318 -0.0336,0.30725 0,0.24185 0.006,0.277 0.0541,0.30264 0.0309,0.0165 0.24764,0.029 0.50439,0.029 h 0.45019 v 0.22075 c 0,0.14488 -0.0127,0.22914 -0.0351,0.24519 -0.0194,0.0135 -0.40385,0.0211 -0.85465,0.0171 z"
         id="path22303" /><path
         style="fill:#000000;fill-opacity:1;stroke:none;stroke-width:0.211817;stroke-linecap:round;stroke-linejoin:round;stroke-dasharray:none;stroke-dashoffset:0;stroke-opacity:1"
         d="m 239.53475,102.17851 -0.31525,-0.008 v -0.0815 c 0,-0.0448 0.0111,-0.0884 0.0249,-0.0969 0.0143,-0.008 0.0318,-0.0565 0.04,-0.10674 0.0251,-0.15148 0.05,-0.25639 0.0751,-0.3155 0.0241,-0.057 0.0479,-0.15669 0.0737,-0.30823 0.008,-0.0462 0.0251,-0.10929 0.0383,-0.14012 0.0127,-0.0308 0.0319,-0.0939 0.0413,-0.14012 0.01,-0.0462 0.0293,-0.13135 0.0441,-0.18914 0.0143,-0.0578 0.0386,-0.15237 0.0529,-0.21017 0.0143,-0.0578 0.0403,-0.15551 0.058,-0.21716 0.0175,-0.0617 0.0435,-0.15938 0.058,-0.21717 0.0428,-0.171876 0.0803,-0.321851 0.11222,-0.448351 0.0165,-0.06552 0.0369,-0.160068 0.0451,-0.210157 l 0.0143,-0.09107 h 0.47277 0.47277 l 0.0159,0.07705 c 0.01,0.04237 0.028,0.124354 0.0426,0.182144 0.0143,0.05783 0.0401,0.158673 0.0567,0.224174 0.0165,0.06552 0.0416,0.15782 0.056,0.20514 0.0143,0.0473 0.0262,0.11279 0.0262,0.14547 0,0.0326 0.0111,0.0663 0.0249,0.0748 0.0143,0.008 0.0318,0.0565 0.04,0.10673 0.008,0.0502 0.0276,0.14177 0.043,0.20342 0.0159,0.0617 0.049,0.20035 0.0751,0.30824 0.026,0.10787 0.0575,0.22137 0.0702,0.25219 0.0127,0.0308 0.0306,0.0939 0.0403,0.14012 0.017,0.0823 0.0446,0.19578 0.10224,0.42032 0.0159,0.0617 0.0356,0.15318 0.0438,0.20342 0.008,0.0502 0.0262,0.0983 0.04,0.10674 0.0143,0.008 0.0249,0.043 0.0249,0.0768 3e-5,0.0604 -0.005,0.0612 -0.35729,0.052 -0.19651,-0.005 -0.36152,-0.0135 -0.36668,-0.0187 -0.005,-0.005 -0.0163,-0.0639 -0.0249,-0.1307 -0.008,-0.0668 -0.033,-0.15609 -0.0544,-0.19847 l -0.0389,-0.0771 h -0.31618 c -0.35089,0 -0.3951,0.0169 -0.42199,0.16113 -0.0405,0.21761 -0.0526,0.25592 -0.083,0.26432 -0.0176,0.005 -0.17398,0.005 -0.34736,7.1e-4 z m 1.05856,-0.94573 c 0.0275,-0.0331 0.0286,-0.0669 0.005,-0.14711 -0.017,-0.0573 -0.0384,-0.14201 -0.0476,-0.18824 -0.01,-0.0462 -0.03,-0.14712 -0.0464,-0.22417 -0.0162,-0.0771 -0.0378,-0.19685 -0.0476,-0.26621 -0.0143,-0.10099 -0.0291,-0.1261 -0.0736,-0.1261 -0.041,0 -0.0608,0.0257 -0.0756,0.0981 -0.0111,0.0539 -0.034,0.15482 -0.0511,0.22418 -0.0956,0.38734 -0.12509,0.57021 -0.10191,0.6306 0.0232,0.0604 0.38873,0.0595 0.43892,-7.1e-4 z"
         id="path22305" /><path
         style="fill:#000000;fill-opacity:1;stroke:none;stroke-width:0.211817;stroke-linecap:round;stroke-linejoin:round;stroke-dasharray:none;stroke-dashoffset:0;stroke-opacity:1"
         d="m 241.80935,102.17475 c -0.006,-0.007 -0.0111,-0.63376 -0.0111,-1.39407 v -1.382403 h 0.31541 0.3154 l 0.0373,0.09107 c 0.0204,0.05007 0.063,0.147815 0.0944,0.217165 0.0314,0.06935 0.0683,0.154465 0.0816,0.189147 0.045,0.115781 0.0744,0.188311 0.11969,0.294221 l 0.0898,0.21017 c 0.0246,0.0578 0.0553,0.1303 0.0679,0.16112 0.10683,0.26059 0.12271,0.28814 0.15778,0.27469 0.0303,-0.0116 0.0378,-0.15524 0.0378,-0.72604 v -0.711544 h 0.33632 0.33633 l -0.002,1.365584 c -0.002,0.75108 -0.0127,1.37841 -0.0255,1.39408 -0.0143,0.017 -0.14111,0.025 -0.31673,0.0197 l -0.29319,-0.009 -0.0567,-0.11736 c -0.0311,-0.0646 -0.0768,-0.16464 -0.10159,-0.22244 -0.11619,-0.27166 -0.1362,-0.31897 -0.15699,-0.37129 -0.0127,-0.0308 -0.0425,-0.10332 -0.0671,-0.16112 -0.0246,-0.0578 -0.0649,-0.15237 -0.0892,-0.21016 -0.0244,-0.0578 -0.0559,-0.12697 -0.0702,-0.15374 -0.0143,-0.0268 -0.0257,-0.0673 -0.0257,-0.0901 0,-0.046 -0.0946,-0.10761 -0.12238,-0.0798 -0.01,0.01 -0.0178,0.33398 -0.0178,0.72057 l 3e-5,0.70287 h -0.31042 c -0.17072,0 -0.31574,-0.005 -0.32226,-0.0118 z"
         id="path22307" /><path
         style="fill:#000000;fill-opacity:1;stroke:none;stroke-width:0.211817;stroke-linecap:round;stroke-linejoin:round;stroke-dasharray:none;stroke-dashoffset:0;stroke-opacity:1"
         d="m 245.34223,102.13084 c -0.0462,-0.0203 -0.12191,-0.0792 -0.16812,-0.13082 l -0.0841,-0.0938 v -1.12631 -1.126318 l 0.0927,-0.0957 c 0.1362,-0.140593 0.23776,-0.159603 0.85205,-0.159603 0.56829,0 0.68571,0.01784 0.80027,0.121528 0.14444,0.130783 0.14635,0.147292 0.14635,1.267203 0,1.00782 -0.002,1.04767 -0.0591,1.15446 -0.0403,0.0755 -0.0984,0.12974 -0.1829,0.17078 -0.1154,0.056 -0.16476,0.06 -0.71854,0.0579 -0.42729,-10e-4 -0.61839,-0.0127 -0.67879,-0.0393 z m 0.88158,-0.49612 c 0.0548,-0.0587 0.0571,-0.095 0.0571,-0.84937 0,-0.75434 -0.002,-0.790674 -0.0571,-0.84938 -0.0425,-0.04564 -0.0895,-0.06131 -0.18397,-0.06131 -0.24969,0 -0.23525,-0.05586 -0.23525,0.9103 0,0.96432 -0.0143,0.90869 0.23009,0.91026 0.10048,6.4e-4 0.14572,-0.0138 0.18913,-0.0605 z"
         id="path22309" /><path
         style="fill:#000000;fill-opacity:1;stroke:none;stroke-width:0.211817;stroke-linecap:round;stroke-linejoin:round;stroke-dasharray:none;stroke-dashoffset:0;stroke-opacity:1"
         d="m 247.41357,102.17475 c -0.006,-0.007 -0.0111,-0.63376 -0.0111,-1.39407 v -1.382403 h 0.77577 c 0.73048,0 0.78283,0.0036 0.89715,0.05876 0.21466,0.103909 0.25958,0.252142 0.26015,0.858533 5.1e-4,0.53115 -0.0289,0.67873 -0.1581,0.79209 -0.11604,0.10194 -0.30149,0.14004 -0.68155,0.14004 -0.23976,0 -0.31424,0.009 -0.34888,0.044 -0.0362,0.0362 -0.044,0.12004 -0.044,0.46937 l 2e-5,0.42533 h -0.33854 c -0.1862,0 -0.34382,-0.005 -0.35028,-0.0118 z m 1.12899,-1.45383 c 0.0481,-0.0305 0.0548,-0.748095 0.008,-0.805003 -0.0427,-0.05137 -0.36442,-0.05732 -0.41409,-0.0076 -0.0466,0.04672 -0.0466,0.754733 0,0.801423 0.0371,0.0371 0.35223,0.0458 0.40659,0.0113 z"
         id="path22311" /><path
         style="fill:#000000;fill-opacity:1;stroke:none;stroke-width:0.211817;stroke-linecap:round;stroke-linejoin:round;stroke-dasharray:none;stroke-dashoffset:0;stroke-opacity:1"
         d="m 249.67142,102.17709 c -0.0179,-0.006 -0.0278,-0.50121 -0.0278,-1.39408 v -1.384733 h 0.82663 0.82664 v 0.238182 0.238183 h -0.44782 c -0.52381,0 -0.48453,-0.03156 -0.47113,0.378288 l 0.008,0.2522 0.39931,0.008 0.39931,0.008 v 0.25142 0.25143 h -0.37268 c -0.25252,0 -0.38353,0.0108 -0.40632,0.0337 -0.0457,0.0458 -0.0457,0.55946 0,0.60526 0.0235,0.0234 0.17249,0.0337 0.49039,0.0337 h 0.45674 v 0.23737 0.23737 l -0.82681,0.008 c -0.45472,0.004 -0.83933,0.004 -0.85464,-10e-4 z"
         id="path22313" /><path
         style="fill:#000000;fill-opacity:1;stroke:none;stroke-width:0.211817;stroke-linecap:round;stroke-linejoin:round;stroke-dasharray:none;stroke-dashoffset:0;stroke-opacity:1"
         d="m 251.97635,102.17851 -0.31524,-0.008 v -1.38612 -1.386156 h 0.3154 0.31541 l 0.0376,0.09107 c 0.0208,0.05007 0.0554,0.132053 0.077,0.182139 0.0848,0.19688 0.13001,0.303906 0.15413,0.364277 l 0.0503,0.1261 c 0.0143,0.0347 0.0454,0.11034 0.07,0.16813 0.0246,0.0578 0.0649,0.15235 0.0892,0.21016 0.0244,0.0578 0.0621,0.14606 0.0837,0.19615 0.0216,0.0501 0.0587,0.0911 0.0827,0.0911 0.0383,0 0.0424,-0.0846 0.0356,-0.71457 l -0.008,-0.714578 0.34328,2.2e-5 0.34326,2.3e-5 v 1.387063 c 0,1.09032 -0.008,1.38734 -0.0351,1.3883 -0.49408,0.0173 -0.66552,-0.008 -0.66552,-0.0984 0,-0.0189 -0.0176,-0.0709 -0.0389,-0.11565 -0.0214,-0.0448 -0.0578,-0.1255 -0.0808,-0.17945 -0.023,-0.0539 -0.0686,-0.15783 -0.10111,-0.23087 -0.0327,-0.073 -0.0592,-0.13937 -0.0592,-0.14742 0,-0.0138 -0.0231,-0.068 -0.16483,-0.38499 -0.0327,-0.073 -0.0594,-0.1514 -0.0594,-0.17415 0,-0.058 -0.10826,-0.11413 -0.12636,-0.0655 -0.008,0.02 -0.0166,0.34517 -0.0206,0.72276 l -0.008,0.68653 z"
         id="path22315" /><path
         style="fill:#000000;fill-opacity:1;stroke:none;stroke-width:0.211817;stroke-linecap:round;stroke-linejoin:round;stroke-dasharray:none;stroke-dashoffset:0;stroke-opacity:1"
         d="m 251.59572,106.52511 c -0.009,-0.0103 -0.0186,-0.6849 -0.0186,-1.49915 v -1.48048 h 0.77221 c 0.88143,0 0.97968,0.0144 1.13286,0.16772 0.16047,0.16046 0.17342,0.27364 0.1605,1.40149 -0.006,0.53171 -0.021,1.00941 -0.0332,1.06155 -0.0319,0.13626 -0.19805,0.29028 -0.35871,0.33253 -0.14175,0.0373 -1.61938,0.0519 -1.6549,0.0163 z m 1.17043,-0.48501 0.0719,-0.0274 v -0.9627 -0.9627 l -0.0641,-0.0343 c -0.0365,-0.0196 -0.13604,-0.0306 -0.23119,-0.0258 l -0.16704,0.009 -0.008,0.99965 c -0.008,0.93476 -0.005,1.00049 0.0421,1.01254 0.0916,0.0239 0.28339,0.0196 0.35581,-0.008 z"
         id="path22317" /><path
         style="fill:#000000;fill-opacity:1;stroke:none;stroke-width:0.211817;stroke-linecap:round;stroke-linejoin:round;stroke-dasharray:none;stroke-dashoffset:0;stroke-opacity:1"
         d="m 249.37326,106.49648 c -0.064,-0.0221 -0.15016,-0.0743 -0.19188,-0.11595 -0.14921,-0.14922 -0.15334,-0.19212 -0.15381,-1.56706 l -4.6e-4,-1.26798 h 0.39231 0.3923 v 1.1769 c 0,1.13955 0.002,1.17869 0.056,1.23295 0.0421,0.0421 0.0935,0.056 0.20583,0.056 0.25646,0 0.24253,0.0738 0.24253,-1.28419 v -1.18171 h 0.37828 0.3783 v 1.31739 c 0,1.00182 -0.008,1.33241 -0.0351,1.38007 -0.071,0.12697 -0.14588,0.18952 -0.29288,0.24452 -0.13365,0.05 -0.21285,0.0559 -0.70293,0.0528 -0.39961,-0.003 -0.5845,-0.0146 -0.66854,-0.0438 z"
         id="path22319" /><path
         style="fill:#000000;fill-opacity:1;stroke:none;stroke-width:0.211817;stroke-linecap:round;stroke-linejoin:round;stroke-dasharray:none;stroke-dashoffset:0;stroke-opacity:1"
         d="m 246.87398,106.48421 c -0.11874,-0.0463 -0.16632,-0.0847 -0.23118,-0.18695 l -0.0816,-0.12872 v -1.11196 c 0,-1.17819 0.006,-1.23533 0.13461,-1.35205 0.0303,-0.0275 0.11985,-0.0745 0.19875,-0.10451 0.12445,-0.0472 0.21639,-0.0546 0.68863,-0.0546 0.47705,0 0.56383,0.007 0.69534,0.0562 0.15096,0.0565 0.27215,0.16181 0.27215,0.23656 0,0.0221 0.0127,0.048 0.028,0.0575 0.0179,0.0111 0.028,0.42036 0.028,1.13578 v 1.11846 l -0.0657,0.11985 c -0.047,0.0857 -0.10493,0.13983 -0.20316,0.1899 -0.13222,0.0674 -0.15987,0.0703 -0.72591,0.0764 -0.53807,0.006 -0.60126,0.001 -0.73801,-0.0519 z m 0.9041,-0.51682 c 0.0242,-0.0242 0.0508,-0.0715 0.0592,-0.10508 0.008,-0.0336 0.0111,-0.43096 0.008,-0.88302 -0.01,-0.94212 0.002,-0.9014 -0.26582,-0.9014 -0.11143,0 -0.16283,0.0141 -0.2048,0.056 -0.0535,0.0536 -0.056,0.0934 -0.056,0.90542 0,0.81606 0.002,0.85179 0.0571,0.9107 0.0716,0.0769 0.33239,0.0881 0.40317,0.0173 z"
         id="path22321" /><path
         style="fill:#000000;fill-opacity:1;stroke:none;stroke-width:0.211817;stroke-linecap:round;stroke-linejoin:round;stroke-dasharray:none;stroke-dashoffset:0;stroke-opacity:1"
         d="m 244.59966,105.04463 v -1.49915 h 0.37828 0.37831 v 1.20395 c 0,1.16162 0.002,1.20496 0.0541,1.23295 0.0305,0.0163 0.23894,0.029 0.47637,0.029 h 0.42217 v 0.26621 0.26621 h -0.85466 -0.85467 z"
         id="path22323" /><path
         style="fill:#000000;fill-opacity:1;stroke:none;stroke-width:0.211817;stroke-linecap:round;stroke-linejoin:round;stroke-dasharray:none;stroke-dashoffset:0;stroke-opacity:1"
         d="m 242.56855,106.50569 c -0.1427,-0.0397 -0.30038,-0.19714 -0.34438,-0.34411 -0.0472,-0.1575 -0.0484,-2.07008 -0.002,-2.23456 0.041,-0.14354 0.20252,-0.30322 0.35205,-0.34802 0.0697,-0.0209 0.31189,-0.0335 0.64306,-0.0335 0.60001,0 0.72838,0.026 0.86836,0.17626 0.11318,0.12139 0.14922,0.26729 0.14922,0.60405 0,0.33801 0.0282,0.31868 -0.44834,0.30665 l -0.32225,-0.008 -0.0143,-0.26155 c -0.0111,-0.21662 -0.0233,-0.26836 -0.0684,-0.30123 -0.0702,-0.0512 -0.26952,-0.0512 -0.33956,1.1e-4 -0.0519,0.038 -0.0544,0.0816 -0.0544,0.97936 0,0.73357 0.008,0.94756 0.0363,0.97601 0.0211,0.0211 0.10159,0.0364 0.1914,0.0364 0.20799,0 0.23452,-0.0387 0.23452,-0.34162 V 105.479 h 0.39232 0.3923 v 0.28397 c 0,0.15618 -0.0143,0.33587 -0.033,0.39931 -0.0413,0.14439 -0.20048,0.30005 -0.35449,0.34652 -0.1454,0.0439 -1.11884,0.0416 -1.27938,-0.003 z"
         id="path22325" /><path
         style="fill:#000000;fill-opacity:1;stroke:none;stroke-width:0.211817;stroke-linecap:round;stroke-linejoin:round;stroke-dasharray:none;stroke-dashoffset:0;stroke-opacity:1"
         d="m 239.12648,106.5255 c -0.0111,-0.0105 -0.019,-0.68529 -0.019,-1.49954 v -1.48048 h 0.89669 0.89669 v 0.26554 0.26554 l -0.48337,0.008 -0.48338,0.008 -0.008,0.32782 -0.008,0.32782 0.0986,0.0185 c 0.0541,0.0102 0.24372,0.0138 0.42119,0.008 l 0.3227,-0.0102 v 0.27242 0.27242 l -0.37131,-7e-4 c -0.2042,-3.9e-4 -0.39374,5e-5 -0.42118,7e-4 -0.0454,10e-4 -0.0492,0.032 -0.0421,0.34493 l 0.008,0.34326 0.50438,0.008 0.50439,0.008 -0.005,0.25862 -0.005,0.25862 -0.89327,0.007 c -0.4913,0.004 -0.90185,-10e-4 -0.91235,-0.0117 z"
         id="path22327" /><path
         style="fill:#000000;fill-opacity:1;stroke:none;stroke-width:0.211817;stroke-linecap:round;stroke-linejoin:round;stroke-dasharray:none;stroke-dashoffset:0;stroke-opacity:1"
         d="m 237.07975,106.48879 c -0.0749,-0.0297 -0.16132,-0.0768 -0.19202,-0.10453 -0.13271,-0.12013 -0.13414,-0.13394 -0.13414,-1.33962 0,-1.25262 -0.002,-1.23434 0.17512,-1.36951 0.14954,-0.11392 0.29935,-0.13488 0.89224,-0.12484 0.50709,0.009 0.55267,0.0136 0.67371,0.0756 0.21158,0.10819 0.24848,0.20395 0.24848,0.64499 v 0.36747 h -0.3783 -0.37829 v -0.26461 c 0,-0.24169 -0.005,-0.2684 -0.0622,-0.30825 -0.0802,-0.0561 -0.2717,-0.0561 -0.35182,0 -0.0622,0.0436 -0.0622,0.0443 -0.0622,0.97734 0,1.06355 -0.0127,1.01062 0.23818,1.01062 0.21642,0 0.23818,-0.0298 0.23818,-0.32568 V 105.479 h 0.37829 0.3783 v 0.36014 c 0,0.32666 -0.006,0.36898 -0.0632,0.45535 -0.0354,0.0535 -0.12445,0.12594 -0.20316,0.16527 -0.13366,0.0669 -0.16541,0.0704 -0.7005,0.0766 -0.49726,0.006 -0.57579,4.5e-4 -0.69665,-0.0475 z"
         id="path22329" /><path
         style="fill:#000000;fill-opacity:1;stroke:none;stroke-width:0.211817;stroke-linecap:round;stroke-linejoin:round;stroke-dasharray:none;stroke-dashoffset:0;stroke-opacity:1"
         d="m 234.23165,105.04375 v -1.50005 l 0.32627,0.008 c 0.35364,0.009 0.32956,-0.003 0.41398,0.19704 0.0244,0.0578 0.0646,0.15236 0.0892,0.21017 0.0587,0.13764 0.0971,0.23074 0.12698,0.30823 0.0127,0.0347 0.0352,0.0914 0.0488,0.1261 0.0127,0.0347 0.0529,0.1261 0.0876,0.20317 0.0348,0.077 0.0756,0.17163 0.091,0.21015 0.0159,0.0385 0.0389,0.092 0.0526,0.11872 0.0143,0.0268 0.0248,0.0673 0.0248,0.0901 0,0.046 0.0946,0.10761 0.12238,0.0798 0.01,-0.01 0.0178,-0.36237 0.0178,-0.78363 v -0.76592 h 0.35028 0.35026 v 1.49915 1.49916 h -0.35026 c -0.21735,0 -0.35028,-0.0108 -0.35028,-0.0283 0,-0.0264 -0.0311,-0.10148 -0.17451,-0.42003 -0.0313,-0.0693 -0.0678,-0.15446 -0.0813,-0.18914 -0.0449,-0.11578 -0.0744,-0.18831 -0.11969,-0.29423 -0.0246,-0.0578 -0.0649,-0.15236 -0.0892,-0.21016 -0.0244,-0.0578 -0.0558,-0.12697 -0.0702,-0.15373 -0.0143,-0.0268 -0.026,-0.0646 -0.0262,-0.0841 -0.002,-0.0631 -0.10127,-0.17269 -0.12413,-0.1358 -0.0111,0.0184 -0.0189,0.36683 -0.0168,0.77441 l 0.003,0.74107 h -0.35149 -0.35149 z"
         id="path22331" /><path
         style="fill:#000000;fill-opacity:1;stroke:none;stroke-width:0.211817;stroke-linecap:round;stroke-linejoin:round;stroke-dasharray:none;stroke-dashoffset:0;stroke-opacity:1"
         d="m 232.09305,106.5255 c -0.0111,-0.0105 -0.019,-0.68529 -0.019,-1.49954 v -1.48048 h 0.8967 0.89671 v 0.26556 0.26555 l -0.4974,0.008 -0.49738,0.008 -0.008,0.32782 -0.008,0.32782 0.0921,0.0173 c 0.0505,0.01 0.24016,0.0133 0.42125,0.008 l 0.32927,-0.009 -6e-5,0.27513 -5e-5,0.27513 -0.3713,-0.004 c -0.2042,-0.002 -0.39373,-0.003 -0.42117,-0.002 -0.0455,0.002 -0.0492,0.0326 -0.0421,0.34538 l 0.008,0.34326 0.51243,0.008 0.51246,0.008 -0.008,0.25856 -0.008,0.25856 -0.88464,0.007 c -0.48654,0.004 -0.89321,-10e-4 -0.9037,-0.0117 z"
         id="path22333" /><path
         style="fill:#000000;fill-opacity:1;stroke:none;stroke-width:0.211817;stroke-linecap:round;stroke-linejoin:round;stroke-dasharray:none;stroke-dashoffset:0;stroke-opacity:1"
         d="m 230.86905,105.04463 v -1.49915 h 0.3783 0.37828 v 1.49915 1.49916 h -0.37828 -0.3783 z"
         id="path22335" /><path
         style="fill:#000000;fill-opacity:1;stroke:none;stroke-width:0.211817;stroke-linecap:round;stroke-linejoin:round;stroke-dasharray:none;stroke-dashoffset:0;stroke-opacity:1"
         d="m 228.80596,106.49838 c -0.1462,-0.0519 -0.25728,-0.16224 -0.30706,-0.30527 -0.0564,-0.16185 -0.0565,-2.13465 -1.7e-4,-2.29641 0.10111,-0.29054 0.26974,-0.35122 0.97595,-0.35122 0.58896,0 0.7189,0.025 0.85943,0.16559 0.11699,0.11694 0.16101,0.29062 0.16934,0.66705 0.006,0.27752 0.0268,0.26608 -0.46102,0.2543 l -0.33626,-0.008 -0.008,-0.2662 c -0.01,-0.30599 -0.0287,-0.33626 -0.2218,-0.33626 -0.0833,0 -0.1381,0.0173 -0.17678,0.056 -0.0538,0.0538 -0.056,0.0934 -0.056,0.96674 0,0.87335 0.002,0.913 0.056,0.96675 0.0635,0.0635 0.20975,0.0742 0.32093,0.0235 0.0691,-0.0315 0.0714,-0.0409 0.0714,-0.295 v -0.26248 l 0.39932,0.008 0.39928,0.008 0.008,0.22418 c 0.0179,0.4669 -0.10604,0.71574 -0.39463,0.79161 -0.19493,0.0513 -1.14642,0.0437 -1.2988,-0.0103 z"
         id="path22337" /><path
         style="fill:#000000;fill-opacity:1;stroke:none;stroke-width:0.211817;stroke-linecap:round;stroke-linejoin:round;stroke-dasharray:none;stroke-dashoffset:0;stroke-opacity:1"
         d="m 226.43576,106.48958 c -0.15159,-0.0593 -0.19309,-0.0954 -0.27286,-0.23739 -0.0462,-0.0822 -0.0575,-0.15219 -0.0575,-0.35454 v -0.25213 l 0.38478,0.008 0.38479,0.008 -0.008,0.11208 c -0.0111,0.1559 0.0676,0.23834 0.22741,0.23776 0.19828,-7.1e-4 0.24408,-0.0702 0.24408,-0.36978 0,-0.31887 -0.003,-0.32171 -0.46869,-0.33486 -0.46596,-0.0132 -0.60236,-0.0617 -0.70299,-0.25029 -0.0567,-0.10597 -0.0613,-0.15394 -0.0613,-0.62621 0,-0.56715 0.0159,-0.63373 0.17731,-0.75571 0.14128,-0.10659 0.27977,-0.12831 0.81948,-0.12846 0.55998,-1.7e-4 0.70294,0.0276 0.83829,0.16296 0.10651,0.10657 0.15351,0.26405 0.15398,0.5164 l 4.5e-4,0.21717 h -0.3923 c -0.4184,0 -0.4033,0.006 -0.39302,-0.14858 0.003,-0.0432 -0.0143,-0.10938 -0.0397,-0.14711 -0.0374,-0.0571 -0.0676,-0.0686 -0.18005,-0.0686 -0.19927,0 -0.22788,0.0445 -0.22788,0.35413 0,0.36542 -0.0111,0.35701 0.49507,0.37608 0.4999,0.0189 0.55595,0.0404 0.68037,0.26193 0.0519,0.0924 0.0575,0.15018 0.0575,0.59109 0,0.4409 -0.006,0.49868 -0.0575,0.59107 -0.0806,0.14364 -0.12144,0.17837 -0.28016,0.23868 -0.11905,0.0453 -0.21532,0.0528 -0.6644,0.0516 -0.44141,-10e-4 -0.54613,-0.01 -0.65707,-0.0529 z"
         id="path22339" /></g></g></svg>
